<svg id="Layer_1" data-name="Layer 1" xmlns="http://www.w3.org/2000/svg" viewBox="0 0 1024 153.96"><defs><style>.cls-1{fill:#fff;}</style></defs><title>earthdayTitle</title><path class="cls-1" d="M102.24,103.92a5.59,5.59,0,0,1,0,8,5.31,5.31,0,0,1-3.81,1.57,5.66,5.66,0,0,1-4-1.57L79.53,97v11.13A5.47,5.47,0,0,1,74,113.63a5.53,5.53,0,0,1-5.6-5.53V66.87A5.53,5.53,0,0,1,74,61.34a5.47,5.47,0,0,1,5.53,5.53V77.92L93.65,63.81a5.57,5.57,0,0,1,7.84,7.92L85.81,87.49Z"/><path class="cls-1" d="M139.89,102.5a5.57,5.57,0,1,1,0,11.13H122.26a5.55,5.55,0,0,1-5.6-5.6V66.87a5.55,5.55,0,0,1,5.6-5.6h17.63a5.57,5.57,0,1,1,0,11.13h-12.1V82.48h12.1a4.93,4.93,0,0,1,0,9.86h-12.1V102.5Z"/><path class="cls-1" d="M182.92,102.5a5.57,5.57,0,1,1,0,11.13H165.29a5.55,5.55,0,0,1-5.6-5.6V66.87a5.55,5.55,0,0,1,5.6-5.6h17.63a5.57,5.57,0,1,1,0,11.13h-12.1V82.48h12.1a4.93,4.93,0,1,1,0,9.86h-12.1V102.5Z"/><path class="cls-1" d="M235.51,77.4a16.33,16.33,0,0,1-1.27,6.35,16,16,0,0,1-3.44,5.15,17.07,17.07,0,0,1-5.15,3.51,16.61,16.61,0,0,1-6.35,1.27h-5.45V108a5.57,5.57,0,1,1-11.13,0V66.87a5.52,5.52,0,0,1,5.53-5.53H219.3a15.32,15.32,0,0,1,6.35,1.27A18.29,18.29,0,0,1,230.8,66a16,16,0,0,1,3.44,5.15A16.73,16.73,0,0,1,235.51,77.4ZM219.3,82.48a5,5,0,1,0,0-10h-5.45v10Z"/><path class="cls-1" d="M300.87,102.5a5.6,5.6,0,0,1,5.68,5.53,5.66,5.66,0,0,1-5.68,5.6H283.24a5.58,5.58,0,0,1-5.53-5.6V66.94a5.53,5.53,0,0,1,5.53-5.6,5.6,5.6,0,0,1,5.6,5.6V102.5Z"/><path class="cls-1" d="M365.11,105.79a5.53,5.53,0,0,1-2.76,7.32,5.22,5.22,0,0,1-2.32.52,5.52,5.52,0,0,1-5.08-3.29l-2.54-5.68H330.67l-2.54,5.68a5.63,5.63,0,0,1-5.15,3.29,4.92,4.92,0,0,1-2.24-.52,5.5,5.5,0,0,1-2.84-7.32L336.35,64.7a5.5,5.5,0,0,1,5.15-3.36,5.68,5.68,0,0,1,5.23,3.36ZM341.5,80.39l-6.42,14.42H348Z"/><path class="cls-1" d="M429.58,82.56a4.93,4.93,0,1,1,0,9.86h-12.1V108a5.57,5.57,0,1,1-11.13,0V66.94a5.55,5.55,0,0,1,5.6-5.6h17.63a5.57,5.57,0,0,1,0,11.13h-12.1V82.56Z"/><path class="cls-1" d="M471.71,102.5a5.6,5.6,0,0,1,5.68,5.53,5.66,5.66,0,0,1-5.68,5.6H454.08a5.58,5.58,0,0,1-5.53-5.6V66.94a5.53,5.53,0,0,1,5.53-5.6,5.6,5.6,0,0,1,5.6,5.6V102.5Z"/><path class="cls-1" d="M504.95,111.54a25.49,25.49,0,0,1-13.9-14A24.65,24.65,0,0,1,489,87.49,26.58,26.58,0,0,1,496.58,69a25.35,25.35,0,0,1,8.37-5.6,25.72,25.72,0,0,1,20.32,0,25.84,25.84,0,0,1,8.29,5.6,25.74,25.74,0,0,1,7.62,18.45,25.86,25.86,0,0,1-2,10.09,26.55,26.55,0,0,1-5.6,8.37,25.84,25.84,0,0,1-8.29,5.6,25.72,25.72,0,0,1-20.32,0ZM504.5,77a14.94,14.94,0,0,0,10.61,25.48A14.39,14.39,0,0,0,525.57,98a14.79,14.79,0,0,0,0-21.07,14.39,14.39,0,0,0-10.46-4.41A15,15,0,0,0,504.5,77Z"/><path class="cls-1" d="M564,112.29a17.22,17.22,0,0,1-5.53-3.74,18.77,18.77,0,0,1-3.66-5.53,17.15,17.15,0,0,1-1.34-6.72V66.87a5.53,5.53,0,1,1,11.06,0V96.3a6.2,6.2,0,1,0,12.4,0V66.87a5.57,5.57,0,0,1,11.13,0V96.3a17.15,17.15,0,0,1-1.34,6.72,16.44,16.44,0,0,1-3.74,5.53,16.91,16.91,0,0,1-5.45,3.74,17.67,17.67,0,0,1-13.52,0Z"/><path class="cls-1" d="M633.66,105.94a4.95,4.95,0,0,1-4,7.69,5.11,5.11,0,0,1-4.18-2.17l-12.1-17.63v14.27a5.53,5.53,0,1,1-11.06,0V66.87a5.6,5.6,0,0,1,5.45-5.53h11.06a16.3,16.3,0,0,1,6.28,1.34,14.09,14.09,0,0,1,5.15,3.51,13.77,13.77,0,0,1,3.51,5.08,16.33,16.33,0,0,1,0,12.63A16.76,16.76,0,0,1,630.22,89a16,16,0,0,1-5.15,3.44,4.41,4.41,0,0,0-.6.3ZM618.79,72.55h-5.45V82.63h5.45a4.9,4.9,0,0,0,4.93-5A5,5,0,0,0,618.79,72.55Z"/><path class="cls-1" d="M654,113.63a5.63,5.63,0,0,1-5.6-5.53V66.94a5.64,5.64,0,0,1,5.6-5.6,5.58,5.58,0,0,1,5.53,5.6v41.16A5.56,5.56,0,0,1,654,113.63Z"/><path class="cls-1" d="M686.32,113.71a21.66,21.66,0,0,1-11.21-3.36,5.47,5.47,0,0,1-1.49-7.69,5.54,5.54,0,0,1,7.7-1.49c3.44,2.32,9.94,1.79,10.46-3.29a4.91,4.91,0,0,0-1.94-4.48c-1.64-1.2-4-1.27-5.75-2.09a16.76,16.76,0,0,1-5.83-3.81,14.81,14.81,0,0,1-4.93-10.16,17.42,17.42,0,0,1,1.12-6.13,17.49,17.49,0,0,1,3.21-4.93,16.58,16.58,0,0,1,10.61-4.93,19.64,19.64,0,0,1,9.86,2.32,5.7,5.7,0,0,1,2,7.69,5.58,5.58,0,0,1-7.62,1.87,5.94,5.94,0,0,0-6.28.3,4.26,4.26,0,0,0-1.64,3.21c-.15,4.41,5.45,4.48,8.37,5.68a16.87,16.87,0,0,1,6,4.26A15.84,15.84,0,0,1,703.05,97a15.54,15.54,0,0,1-4.63,11.65,16.89,16.89,0,0,1-11.13,5C687,113.63,686.62,113.71,686.32,113.71Z"/><path class="cls-1" d="M753.7,66.94V108a5.53,5.53,0,1,1-11.06,0V92.49H727.25V108a5.57,5.57,0,1,1-11.13,0V66.94a5.57,5.57,0,1,1,11.13,0V82.63h15.39V66.94a5.53,5.53,0,1,1,11.06,0Z"/><path class="cls-1" d="M773.49,113.63a5.63,5.63,0,0,1-5.6-5.53V66.94a5.64,5.64,0,0,1,5.6-5.6,5.58,5.58,0,0,1,5.53,5.6v41.16A5.56,5.56,0,0,1,773.49,113.63Z"/><path class="cls-1" d="M834.3,66.94V108a5.55,5.55,0,0,1-10,3.36.27.27,0,0,1-.08-.22l-19.8-28.61V108a5.6,5.6,0,1,1-11.21,0V66.94a5.64,5.64,0,0,1,5.6-5.6,5.53,5.53,0,0,1,4.86,2.84l19.5,28.31V66.94a5.64,5.64,0,0,1,5.6-5.6A5.58,5.58,0,0,1,834.3,66.94Z"/><path class="cls-1" d="M898.1,88.61a26.48,26.48,0,0,1-7.62,17.63,25.35,25.35,0,0,1-36.16-.37A26.31,26.31,0,0,1,854.69,69a24,24,0,0,1,8.29-5.6,25,25,0,0,1,10.16-2.09,27.61,27.61,0,0,1,8.59,1.42,28.24,28.24,0,0,1,7.4,4,5.68,5.68,0,0,1,1,7.92,5.56,5.56,0,0,1-7.84,1,15,15,0,0,0-24.05,11.88,15.34,15.34,0,0,0,4.18,10.68,14,14,0,0,0,10.16,4.26,14.43,14.43,0,0,0,5.6-1.12,12.47,12.47,0,0,0,4.41-3,14.84,14.84,0,0,0,3.51-5.68H872.62a5,5,0,0,1,0-9.94h19.8a1.27,1.27,0,0,1,.52.07A5.56,5.56,0,0,1,898.1,88.61Z"/></svg>