<svg id="earth" xmlns="http://www.w3.org/2000/svg" viewBox="0 0 123.37 87.96"><defs><style>.cls-1{fill:#cdcccc;}.cls-2{fill:#989898;}</style></defs><title>EARTHDAY</title><path class="cls-1" d="M0.24,54.16C-2,40.31,12.08,26.47,25.92,29c1.51,0.25,3.27.76,4.78,0,1.26-.5,2-1.76,2.77-3,2.77-5,3.78-10.83,6.29-15.86S46.82,0.28,52.36,0c3.27-.25,6.29,1.26,9.06,2.52,17.12,7.55,34.75,15.86,45.83,31,3.78-3,9.82-1,12.59,2.77s3.53,9.06,3.53,13.85a79.85,79.85,0,0,1-3.78,24.42c-2,6-5.79,12.59-12.09,13.34-7.3.76-12.09-6.55-16.87-12.09-1-1-2-2.27-3.53-2.52-3-.5-5.29,2.77-7.3,5C74,84.63,64.2,84.63,55.64,83.87s-16.87-1.26-25.43-2c-3.78-.25-7.81-0.5-11.33-2C8,76.07,2,64,.49,52.65"/><path class="cls-2" d="M36,38.8c9.32-3,9.32,6.8,15.86,9.57,2.52,1,4.78-.25,6.55,2,1.26,1.51.76,2.77,3.27,3,2.27,0.25,3.53-3.27,1-3.53-0.5,0-2-3.53-3.27-4.28-1.51-.76-2.77-0.25-4.28-0.25-3.27-.5-4-2.27-5.79-4.53C45.56,36,41.28,33.52,35,35.53c-2.27.25-1.26,3.78,1,3.27h0Z"/><path class="cls-2" d="M71.5,35.28c6-1,13.09-2,16.37,4.28,2.27,4.28.5,8.81,1,13.34C89.63,58.69,97.68,60,102.22,62c2.27,1,4-2.27,2-3.27-2.52-1-6-2-8.31-3.53-2.27-.25-3.27-1.76-3.27-4a21.66,21.66,0,0,1,.25-4c0-3.53,0-7.3-2-10.32-4.53-6.8-13.6-6-20.39-4.78-2.27,0-1.26,3.78,1,3.27h0Z"/><path class="cls-2" d="M106.75,49.38a3.72,3.72,0,0,1,4-2c2.27,0.5,3.27-3.27,1-3.53a8,8,0,0,0-8.31,3.78c-1.26,2,2,4,3.27,1.76h0Z"/><path class="cls-2" d="M31.21,66.5c3.53-1,11.08-3.27,13.34.25,0.76,1,1.51,1.76,2.27,2.77,0.25,0.25.76,0.5,1,.76-0.5.5-.76,1.26-1.26,1.76-1,.5-3.53-1.51-4.28-2-2-1.51-3.78,1.76-2,3.27,2.77,2,6.55,4,9.82,1.26a4.41,4.41,0,0,0,.25-6.8,12.61,12.61,0,0,1-2-1.76c-0.5-.76-0.25-1.76-0.76-2.52a4.16,4.16,0,0,0-3.27-2c-4.53-.76-9.82.25-14.35,1.51-2,.5-1,4.28,1.26,3.53h0Z"/></svg>