<svg id="BG" xmlns="http://www.w3.org/2000/svg" xmlns:xlink="http://www.w3.org/1999/xlink" viewBox="0 0 184 105.34"><defs><style>.cls-1{fill:url(#linear-gradient);}.cls-2{fill:url(#linear-gradient-2);}.cls-3{fill:url(#linear-gradient-3);}.cls-4{fill:url(#linear-gradient-4);}.cls-5{opacity:0.71;}.cls-6{fill:#e6e6e5;}</style><linearGradient id="linear-gradient" x1="1482.02" y1="312.52" x2="83.01" y2="312.52" gradientUnits="userSpaceOnUse"><stop offset="0" stop-color="#7fd0da" stop-opacity="0.6"/><stop offset="0.18" stop-color="#8cc9d3" stop-opacity="0.55"/><stop offset="0.5" stop-color="#b0b6c0" stop-opacity="0.43"/><stop offset="0.93" stop-color="#e998a2" stop-opacity="0.24"/><stop offset="1" stop-color="#f3929c" stop-opacity="0.2"/></linearGradient><linearGradient id="linear-gradient-2" x1="1414.25" y1="268.33" x2="15.24" y2="268.33" xlink:href="#linear-gradient"/><linearGradient id="linear-gradient-3" x1="1364.44" y1="217.68" x2="-34.57" y2="217.68" xlink:href="#linear-gradient"/><linearGradient id="linear-gradient-4" x1="1321.28" y1="177.84" x2="-77.73" y2="177.84" xlink:href="#linear-gradient"/></defs><title>EARTHDAY</title><path class="cls-1" d="M158.54,894.11S-97,616.9,331.93,436.83,925.1-56.42,1062-213s331.39-161.78,331.39-161.78L1482,999.81Z"/><path class="cls-2" d="M90.77,849.92S-164.75,572.72,264.16,392.64,857.33-100.6,994.21-257.19,1325.61-419,1325.61-419l88.64,1374.59Z"/><path class="cls-3" d="M41,799.28S-214.56,522.07,214.35,342,807.52-151.25,944.41-307.83,1275.8-469.61,1275.8-469.61L1364.44,905Z"/><path class="cls-4" d="M-2.2,759.43S-257.72,482.22,171.19,302.15,764.36-191.1,901.24-347.68s331.39-161.78,331.39-161.78l88.64,1374.59Z"/><g class="cls-5"><path class="cls-6" d="M40.84,82.94A99.72,99.72,0,0,1,16.2,85.33a22.57,22.57,0,0,1-8.69-1.48A13.25,13.25,0,0,1,.93,67.16c2.61-6.07,10.56-9.31,16.63-6.7a14.4,14.4,0,0,1,2.38-18.05,14.45,14.45,0,0,1,18.22-.23C35,34.41,36.35,25.1,41,18.11A32,32,0,0,1,61.67,4.89C72.06,3,84.95,7.78,86.93,18.11,89.37,7.61,100.16.17,110.95,0s21.12,6,27.53,14.76,9.31,19.59,9.93,30.37c5.17-3.07,11.07-5.22,17.09-4.88s12,3.69,14.53,9.14,0.57,12.89-4.83,15.55c8.52,1,11.75,13.79,5.62,19.76S163.51,88.79,158.23,82c-7.15,13.4-28,16.69-38.89,6.13A49.43,49.43,0,0,1,39.93,82"/></g></svg>