<svg id="earth" xmlns="http://www.w3.org/2000/svg" viewBox="0 0 200.56 105.91"><defs><style>.cls-1{fill:#684d82;}.cls-2{fill:#67458d;}</style></defs><title>EARTHDAY</title><path class="cls-1" d="M37,103.39A105.36,105.36,0,0,1,10.41,94.8a23.39,23.39,0,0,1-6.84-4.51C-3,83.41.49,74.77,6.06,68.76a99.39,99.39,0,0,1,7.79-7.49c5.44-4.71,11.84-4.25,17.49-8,5.17-3.39,8.35-9.42,10.85-14.91,3.61-8,7.94-17,16.52-19.22a17.65,17.65,0,0,0,3.51-1,10.05,10.05,0,0,0,3.33-3.3c2.87-3.84,5.7-7.71,8.56-11.54A7.46,7.46,0,0,1,76.65.85,7.62,7.62,0,0,1,79.72.23c4.43-.31,9.11-0.59,13.19,1.19,6.86,3,10,10.66,15.25,16,3.26,3.37,7.36,5.81,11.4,8.22l17.57,10.46c7.78,4.62,15.56,9.27,24,12.59,7.59,3,15.7,4.9,22.77,8.91,5.9,3.36,10.87,8.06,15.8,12.7a2.91,2.91,0,0,1,.8,1.05,2.6,2.6,0,0,1-.39,2c-3.7,7.19-10.62,12.37-18.16,15.49-6.17,2.52-12.47,3.06-18.84,4.57-4.86,1.16-9.09,3.4-14.21,4.12-16.28,2.31-32.59,4.62-49,6.34C79.06,106.08,57.4,107.23,37,103.39Z"/><path class="cls-2" d="M67.23,36.54c0-.8,0-1.56,0-2.36,0-4.55-1.23-7.18-3.57-11a1.52,1.52,0,0,1-.26-0.65c0-1,3.85-3.59,4.85-3.62,2-.06,3.08,2,3.34,3.71a8.56,8.56,0,0,0,.21,2.32c0.41,1,1.57,1.44,2,2.44A4.49,4.49,0,0,1,74.08,29a31.1,31.1,0,0,1-1.63,10.25,16.27,16.27,0,0,0-1.09,4c-0.07,1.22.25,2.46-.1,3.61a3.51,3.51,0,0,1-4.37,2.29,1,1,0,0,1-.39-0.23A1.1,1.1,0,0,1,66.37,48,97.22,97.22,0,0,0,67.23,36.54Z"/><path class="cls-2" d="M129.1,68.58c-0.56-.29-1.09-0.59-1.63-0.92-1.73-1-3.81-1.93-5.72-1s-3.25,2.53-5.25,3-4.15-.67-6.27-0.88c-3.1-.29-6.1,1.47-9.23,1.26a3.74,3.74,0,0,1-3.39-2c-0.6-1.58.59-3.32,2-4.23s3.12-1.31,4.51-2.29c2.79-2,4.84-5.22,7-7.75,1.61-1.85,3.56-3.89,6.06-3.87a1.25,1.25,0,0,1,.91.28c0.64,0.54.12,1.56-.38,2.23a10.89,10.89,0,0,0-2.13,4.06,4.47,4.47,0,0,0,1.07,4.27,5.5,5.5,0,0,0,2.19,1.15c3.61,1.17,7.6,1.12,11.08,2.64a6.26,6.26,0,0,1,3.83,3.84,0.91,0.91,0,0,1-.08.8,0.77,0.77,0,0,1-.44.22A5.92,5.92,0,0,1,129.1,68.58Z"/><path class="cls-2" d="M103.75,22.15a13.56,13.56,0,0,0,4.32,1.64c0.8,0.15,2.11-.13,2.82.29,3.5,2.15-2.28,3.61-3.73,4-2.48.77-5.12,1.69-6.69,3.78-2.1,2.88-1.48,7.09-3.61,10a1.66,1.66,0,0,1-1.81.82c-0.67-.29-0.7-1.19-0.65-1.92,0.22-3,.47-6.16,1.91-8.84,1-1.8,2.46-4.69,2.67-6.71,0.13-1.36-.41-3,0.68-3.91a2.18,2.18,0,0,1,2.11-.2A8.85,8.85,0,0,1,103.75,22.15Z"/><path class="cls-2" d="M83.34,5.12a3.2,3.2,0,0,0,2.08,3.13A12.56,12.56,0,0,0,89.36,9,6,6,0,0,1,93,10.37a0.75,0.75,0,0,1,.3.62,0.34,0.34,0,0,1-.51.29,1.92,1.92,0,0,0,1.69-.3,1.41,1.41,0,0,0,.35-1.12,3,3,0,0,0-1.77-2.2C92.22,7.2,91.24,7,90.33,6.6c-2.15-.94-3.91-2.93-6.24-3.17a0.84,0.84,0,0,0-.89.34,0.66,0.66,0,0,0,0,.45A5,5,0,0,0,84.37,7"/><path class="cls-2" d="M40.36,48.82c-0.24,2.23,1,4.31,2,6.36A19.68,19.68,0,0,1,43.9,61.1a2.71,2.71,0,0,1-.72,2.59,2.16,2.16,0,0,1-2.58-.44c-0.71-.64-1.19-1.46-1.9-2.09a6.5,6.5,0,0,0-4.17-1.4c-1.49,0-3,.2-4.51.21a1.31,1.31,0,0,1-1.34-.58A1.33,1.33,0,0,1,29.61,58c2.08-1.07,4.43-1.59,6.47-2.77s3.86-3.28,3.61-5.63"/></svg>