<svg id="BG" xmlns="http://www.w3.org/2000/svg" xmlns:xlink="http://www.w3.org/1999/xlink" viewBox="0 0 403.85 403.85"><defs><style>.cls-1{fill:url(#linear-gradient);}.cls-2{fill:url(#linear-gradient-2);}.cls-3{fill:url(#linear-gradient-3);}.cls-4{fill:url(#linear-gradient-4);}.cls-5{fill:url(#linear-gradient-5);}.cls-6{fill:url(#linear-gradient-6);}.cls-7{fill:url(#linear-gradient-7);}.cls-8{fill:#84c44a;}.cls-9{fill:#79ced5;}</style><linearGradient id="linear-gradient" x1="1500.16" y1="1014.86" x2="101.15" y2="1014.86" gradientUnits="userSpaceOnUse"><stop offset="0" stop-color="#7fd0da" stop-opacity="0.6"/><stop offset="0.18" stop-color="#8cc9d3" stop-opacity="0.55"/><stop offset="0.5" stop-color="#b0b6c0" stop-opacity="0.43"/><stop offset="0.93" stop-color="#e998a2" stop-opacity="0.24"/><stop offset="1" stop-color="#f3929c" stop-opacity="0.2"/></linearGradient><linearGradient id="linear-gradient-2" x1="1473.78" y1="962" x2="74.77" y2="962" xlink:href="#linear-gradient"/><linearGradient id="linear-gradient-3" x1="1361.64" y1="902.37" x2="-37.37" y2="902.37" xlink:href="#linear-gradient"/><linearGradient id="linear-gradient-4" x1="1293.87" y1="858.19" x2="-105.14" y2="858.19" xlink:href="#linear-gradient"/><linearGradient id="linear-gradient-5" x1="1244.06" y1="807.54" x2="-154.95" y2="807.54" xlink:href="#linear-gradient"/><linearGradient id="linear-gradient-6" x1="1200.9" y1="767.69" x2="-198.11" y2="767.69" xlink:href="#linear-gradient"/><linearGradient id="linear-gradient-7" x1="1413.53" y1="1005.14" x2="99.15" y2="1005.14" xlink:href="#linear-gradient"/></defs><title>EARTHDAY</title><path class="cls-1" d="M176.68,1596.45s-255.52-277.21,173.39-457.28,593.17-493.24,730.06-649.83,331.39-161.78,331.39-161.78l88.64,1374.59Z"/><path class="cls-2" d="M150.3,1543.6s-255.52-277.21,173.39-457.28,593.17-493.24,730.06-649.83,331.39-161.78,331.39-161.78l88.64,1374.59Z"/><path class="cls-3" d="M38.16,1484s-255.52-277.21,173.39-457.28S804.72,533.44,941.6,376.85,1273,215.08,1273,215.08l88.64,1374.59Z"/><path class="cls-4" d="M-29.61,1439.78S-285.13,1162.57,143.78,982.5,736.95,489.25,873.83,332.67s331.39-161.78,331.39-161.78l88.64,1374.59Z"/><path class="cls-5" d="M-79.42,1389.13S-334.94,1111.92,94,931.85,687.14,438.6,824,282s331.39-161.78,331.39-161.78l88.64,1374.59Z"/><path class="cls-6" d="M-122.58,1349.28S-378.1,1072.07,50.81,892,644,398.76,780.86,242.17,1112.25,80.4,1112.25,80.4L1200.9,1455Z"/><path class="cls-7" d="M174.91,1627.58s-256.3-272,173.92-448.63,595-483.92,732.29-637.54,332.41-158.72,332.41-158.72V1627.58H174.91Z"/><circle class="cls-8" cx="201.93" cy="201.93" r="201.93"/><path class="cls-9" d="M25.61,103.43s56.92,62.66,78.58,94.46c29.84,43.83,86.22,153.5,103.47,152.52s84.71-93.47,132.62-123.49S403.85,194,403.85,194a165.59,165.59,0,0,1-3.57,46s-19.16,3.71-67.06,33.73S217.84,396.17,200.6,397.14s-72.39-98.78-102-142.75C70.64,213,9,142.14,9,142.14S20.11,112.67,25.61,103.43Z"/></svg>