<svg id="BG" xmlns="http://www.w3.org/2000/svg" xmlns:xlink="http://www.w3.org/1999/xlink" viewBox="0 0 133.86 124.38"><defs><style>.cls-1{fill:url(#linear-gradient);}.cls-2{fill:url(#linear-gradient-2);}.cls-3{fill:#544841;}.cls-4{fill:#24b574;}</style><linearGradient id="linear-gradient" x1="1526.57" y1="623.58" x2="127.56" y2="623.58" gradientUnits="userSpaceOnUse"><stop offset="0" stop-color="#7fd0da" stop-opacity="0.6"/><stop offset="0.18" stop-color="#8cc9d3" stop-opacity="0.55"/><stop offset="0.5" stop-color="#b0b6c0" stop-opacity="0.43"/><stop offset="0.93" stop-color="#e998a2" stop-opacity="0.24"/><stop offset="1" stop-color="#f3929c" stop-opacity="0.2"/></linearGradient><linearGradient id="linear-gradient-2" x1="1483.41" y1="583.73" x2="84.4" y2="583.73" xlink:href="#linear-gradient"/></defs><title>EARTHDAY</title><path class="cls-1" d="M203.09,1205.17S-52.43,928,376.48,747.89,969.65,254.64,1106.54,98.06,1437.93-63.72,1437.93-63.72l88.64,1374.59Z"/><path class="cls-2" d="M159.93,1165.32S-95.59,888.12,333.32,708,926.49,214.8,1063.37,58.21s331.39-161.78,331.39-161.78L1483.41,1271Z"/><path class="cls-3" d="M32,66.87c9.52,2.59,20,5.93,24.83,14.54,1.18,2.09,2,4.46,3.75,6.09a16.61,16.61,0,0,1,2.14,1.91,7,7,0,0,1,1,2.37c1.4,4.88,2,10.12.71,15A23.1,23.1,0,0,1,61.17,114c-1.56,2.28-3.47,3.37-5.36,5.27a1.35,1.35,0,0,0-.52,1.43,1.28,1.28,0,0,0,1.34.46,13.69,13.69,0,0,0,3.27-.64,10.78,10.78,0,0,1,3.66-.91c2.61,0.1,4.34,2.63,6.62,3.89a7.35,7.35,0,0,0,6.44.3,3.47,3.47,0,0,0,1.21-.81c1-1.15.65-2.93,0.2-4.4,1.67-.42,3.35.55,5.07,0.58a4.71,4.71,0,0,0,3.59-1.57,1.17,1.17,0,0,0,.36-1.16,1.22,1.22,0,0,0-.42-0.46c-2.84-2.12-6.6-1.51-9.37-3.95-3.43-3-3.33-8.31-3-12.87,0.59-7.33,1.45-15.28,6.53-20.59a49.87,49.87,0,0,1,5-4.22c9.3-7.51,15.11-18.39,20.67-29,0-1.14-1.46-1.79-2.53-1.42a5.4,5.4,0,0,0-2.42,2.31L91.95,60.45c-3.7,5.46-8,11.35-14.42,12.85a58.56,58.56,0,0,0,1-18.59c-3.68,1.42-3.7,6.44-4.15,10.34a22.5,22.5,0,0,1-4.21,10.73,6.17,6.17,0,0,1-3.66,2.74c-2.12.32-4-1.32-5.3-3a19.91,19.91,0,0,1-3.8-12.64"/><path class="cls-4" d="M95.3,7.11c-4.33-1-8.36.27-12.56,1C82.62,3.89,79.29-.1,74.95.89c-1.28.29-2.21,1.63-3.39,1.86-1,.2-2.1-0.63-3.18-0.44-2.46.44-4.63,1.09-6.16,3.26a2.33,2.33,0,0,0,.83-3.1A4.55,4.55,0,0,0,60.26.38a8.58,8.58,0,0,0-6.38.55c-1.33.68-2.63,1.75-4.11,1.61a8,8,0,0,1-2.34-.87A8.52,8.52,0,0,0,35.5,8.9C31.19,7.85,23,9,24.16,15.39a7.09,7.09,0,0,0-4.28,2.18c-1,1.29-.91,3.52.55,4.24A17.07,17.07,0,0,0,6.51,31.58c-0.58,1.28-.64,3.31.74,3.58a3.31,3.31,0,0,0-1,3.26l2.45,0.93A11.35,11.35,0,0,0,3.21,49.61l3.24,0.08C2.49,54-1.75,59.8.75,65.06,3,69.86,9.93,70.69,14.64,68.25a4,4,0,0,0,.62,4.37c1.13,1.08,3.41.76,3.83-.74,0.57,3.81,5.25,3.93,8.14,3.32,2-.42,4.14-0.56,6-1.57,0.95-.51,4.37-2.58,4.51-3.71-0.31,2.33,2.18,4.26,4.49,3.65s3.91-2.75,5.67-4.4A5.63,5.63,0,0,0,54.36,71c3.86-.9,3.8-4.7,4-2.9,1.51,2,4.92,1.09,6.56-.83,1.25-1.49,1.9-3.28,3-4.87,1.85-2.78,1.39,1.36,2.07,2.78a4.71,4.71,0,0,0,5.32,2.36A5.3,5.3,0,0,0,79,63a5.86,5.86,0,0,0,8.95,1.28c1.07-1,.94-1.07,2.08-0.12a5.75,5.75,0,0,0,2.44,1.5c1.76,0.36,3.48-1.09,4.07-2.78a11.21,11.21,0,0,0,.06-5.34c1.95,0.5,3.72,1.53,5.64,2.12s4.19,0.67,5.77-.58,1.8-4.14,0-5.1c3.58,2.13,8.36,2.88,11.83.56s4.23-8.26.73-10.52a53.62,53.62,0,0,0,9.4,2.57c1.12,0.2,2.43.31,3.24-.49s0.68-2.33.34-3.51A25.44,25.44,0,0,0,112.79,25c0.44-2.28,4.47-3.45,3.49-5.56a2.84,2.84,0,0,0-1.39-1.18A25.41,25.41,0,0,0,104,15.53C103.46,11.24,99.5,8,95.3,7.11Z"/></svg>