<?xml version="1.0" encoding="utf-8"?>
<!-- Generator: Adobe Illustrator 21.0.0, SVG Export Plug-In . SVG Version: 6.00 Build 0)  -->
<!DOCTYPE svg PUBLIC "-//W3C//DTD SVG 1.1//EN" "http://www.w3.org/Graphics/SVG/1.1/DTD/svg11.dtd">
<svg version="1.1" xmlns="http://www.w3.org/2000/svg" xmlns:xlink="http://www.w3.org/1999/xlink" x="0px" y="0px"
	 viewBox="0 0 792 383.6" style="enable-background:new 0 0 792 383.6;" xml:space="preserve">
<style type="text/css">
	.st0{display:none;}
	.st1{display:inline;fill:url(#SVGID_1_);}
	.st2{display:inline;fill:url(#SVGID_2_);}
	.st3{display:inline;fill:url(#SVGID_3_);}
	.st4{display:inline;fill:url(#SVGID_4_);}
	.st5{display:inline;fill:url(#SVGID_5_);}
	.st6{display:inline;fill:url(#SVGID_6_);}
	.st7{display:inline;fill:url(#SVGID_7_);}
	.st8{display:inline;fill:url(#SVGID_8_);}
	.st9{display:inline;fill:url(#SVGID_9_);}
	.st10{display:inline;fill:url(#SVGID_10_);}
	.st11{display:inline;fill:url(#SVGID_11_);}
	.st12{display:inline;fill:url(#SVGID_12_);}
	.st13{display:inline;fill:url(#SVGID_13_);}
	.st14{display:inline;fill:url(#SVGID_14_);}
	.st15{fill:#684D82;}
	.st16{fill:#67458D;}
	.st17{fill:#73538E;}
	.st18{fill:#E6E6E5;}
	.st19{fill:#CDCCCC;}
	.st20{fill:#84C44A;}
	.st21{fill:#544841;}
	.st22{fill:#24B574;}
	.st23{fill:#129155;}
	.st24{fill:#79CED5;}
	.st25{opacity:0.73;}
	.st26{opacity:0.62;}
	.st27{opacity:0.56;}
	.st28{fill:#1A8F45;}
	.st29{fill:#FAED24;}
	.st30{opacity:0.71;}
	.st31{fill:#F5CC24;}
	.st32{fill:#C03942;}
	.st33{fill:#989898;}
	.st34{fill:#676767;}
</style>
<g id="BG" class="st0">
	<linearGradient id="SVGID_1_" gradientUnits="userSpaceOnUse" x1="1108.6978" y1="288.1367" x2="-290.3122" y2="288.1367">
		<stop  offset="0" style="stop-color:#7FD0DA;stop-opacity:0.6"/>
		<stop  offset="0.1429" style="stop-color:#8DCAD4;stop-opacity:0.5428"/>
		<stop  offset="0.3973" style="stop-color:#ACBFC6;stop-opacity:0.4411"/>
		<stop  offset="0.7308" style="stop-color:#D4A9B0;stop-opacity:0.3077"/>
		<stop  offset="1" style="stop-color:#F3929C;stop-opacity:0.2"/>
	</linearGradient>
	<path class="st1" d="M-214.8,869.7c0,0-255.5-277.2,173.4-457.3S551.8-80.8,688.7-237.4s331.4-161.8,331.4-161.8l88.6,1374.6
		L-214.8,869.7z"/>
	<linearGradient id="SVGID_2_" gradientUnits="userSpaceOnUse" x1="1082.3123" y1="235.2852" x2="-316.6978" y2="235.2852">
		<stop  offset="0" style="stop-color:#7FD0DA;stop-opacity:0.6"/>
		<stop  offset="0.1429" style="stop-color:#8DCAD4;stop-opacity:0.5428"/>
		<stop  offset="0.3973" style="stop-color:#ACBFC6;stop-opacity:0.4411"/>
		<stop  offset="0.7308" style="stop-color:#D4A9B0;stop-opacity:0.3077"/>
		<stop  offset="1" style="stop-color:#F3929C;stop-opacity:0.2"/>
	</linearGradient>
	<path class="st2" d="M-241.2,816.9c0,0-255.5-277.2,173.4-457.3s593.2-493.2,730.1-649.8S993.7-452,993.7-452l88.6,1374.6
		L-241.2,816.9z"/>
	<linearGradient id="SVGID_3_" gradientUnits="userSpaceOnUse" x1="970.1735" y1="175.6522" x2="-428.8365" y2="175.6522">
		<stop  offset="0" style="stop-color:#7FD0DA;stop-opacity:0.6"/>
		<stop  offset="0.1429" style="stop-color:#8DCAD4;stop-opacity:0.5428"/>
		<stop  offset="0.3973" style="stop-color:#ACBFC6;stop-opacity:0.4411"/>
		<stop  offset="0.7308" style="stop-color:#D4A9B0;stop-opacity:0.3077"/>
		<stop  offset="1" style="stop-color:#F3929C;stop-opacity:0.2"/>
	</linearGradient>
	<path class="st3" d="M-353.3,757.2c0,0-255.5-277.2,173.4-457.3s593.2-493.2,730.1-649.8s331.4-161.8,331.4-161.8l88.6,1374.6
		L-353.3,757.2z"/>
	<linearGradient id="SVGID_4_" gradientUnits="userSpaceOnUse" x1="902.403" y1="131.4668" x2="-496.607" y2="131.4668">
		<stop  offset="0" style="stop-color:#7FD0DA;stop-opacity:0.6"/>
		<stop  offset="0.1429" style="stop-color:#8DCAD4;stop-opacity:0.5428"/>
		<stop  offset="0.3973" style="stop-color:#ACBFC6;stop-opacity:0.4411"/>
		<stop  offset="0.7308" style="stop-color:#D4A9B0;stop-opacity:0.3077"/>
		<stop  offset="1" style="stop-color:#F3929C;stop-opacity:0.2"/>
	</linearGradient>
	<path class="st4" d="M-421.1,713.1c0,0-255.5-277.2,173.4-457.3s593.2-493.2,730.1-649.8s331.4-161.8,331.4-161.8l88.6,1374.6
		L-421.1,713.1z"/>
	<linearGradient id="SVGID_5_" gradientUnits="userSpaceOnUse" x1="852.5961" y1="80.8184" x2="-546.4139" y2="80.8184">
		<stop  offset="0" style="stop-color:#7FD0DA;stop-opacity:0.6"/>
		<stop  offset="0.1429" style="stop-color:#8DCAD4;stop-opacity:0.5428"/>
		<stop  offset="0.3973" style="stop-color:#ACBFC6;stop-opacity:0.4411"/>
		<stop  offset="0.7308" style="stop-color:#D4A9B0;stop-opacity:0.3077"/>
		<stop  offset="1" style="stop-color:#F3929C;stop-opacity:0.2"/>
	</linearGradient>
	<path class="st5" d="M-470.9,662.4c0,0-255.5-277.2,173.4-457.3s593.2-493.2,730.1-649.8S764-606.5,764-606.5l88.6,1374.6
		L-470.9,662.4z"/>
	<linearGradient id="SVGID_6_" gradientUnits="userSpaceOnUse" x1="809.4301" y1="40.9729" x2="-589.5799" y2="40.9729">
		<stop  offset="0" style="stop-color:#7FD0DA;stop-opacity:0.6"/>
		<stop  offset="0.1429" style="stop-color:#8DCAD4;stop-opacity:0.5428"/>
		<stop  offset="0.3973" style="stop-color:#ACBFC6;stop-opacity:0.4411"/>
		<stop  offset="0.7308" style="stop-color:#D4A9B0;stop-opacity:0.3077"/>
		<stop  offset="1" style="stop-color:#F3929C;stop-opacity:0.2"/>
	</linearGradient>
	<path class="st6" d="M-514,622.6c0,0-255.5-277.2,173.4-457.3S252.5-328,389.4-484.5s331.4-161.8,331.4-161.8l88.6,1374.6
		L-514,622.6z"/>
	<linearGradient id="SVGID_7_" gradientUnits="userSpaceOnUse" x1="1022.0602" y1="278.4167" x2="-292.3184" y2="278.4167">
		<stop  offset="0" style="stop-color:#7FD0DA;stop-opacity:0.6"/>
		<stop  offset="0.1429" style="stop-color:#8DCAD4;stop-opacity:0.5428"/>
		<stop  offset="0.3973" style="stop-color:#ACBFC6;stop-opacity:0.4411"/>
		<stop  offset="0.7308" style="stop-color:#D4A9B0;stop-opacity:0.3077"/>
		<stop  offset="1" style="stop-color:#F3929C;stop-opacity:0.2"/>
	</linearGradient>
	<path class="st7" d="M-216.6,900.9c0,0-256.3-272,173.9-448.6s595-483.9,732.3-637.5S1022.1-344,1022.1-344V900.9H-216.6z"/>
	<linearGradient id="SVGID_8_" gradientUnits="userSpaceOnUse" x1="1003.1555" y1="316.1037" x2="-146.3362" y2="316.1037">
		<stop  offset="0" style="stop-color:#7FD0DA;stop-opacity:0.6"/>
		<stop  offset="0.1429" style="stop-color:#8DCAD4;stop-opacity:0.5428"/>
		<stop  offset="0.3973" style="stop-color:#ACBFC6;stop-opacity:0.4411"/>
		<stop  offset="0.7308" style="stop-color:#D4A9B0;stop-opacity:0.3077"/>
		<stop  offset="1" style="stop-color:#F3929C;stop-opacity:0.2"/>
	</linearGradient>
	<path class="st8" d="M-80.1,864.7c0,0-224.1-239.7,152.1-395.4S592.4,42.8,712.4-92.6s290.7-139.9,290.7-139.9V864.7H-80.1z"/>
	<linearGradient id="SVGID_9_" gradientUnits="userSpaceOnUse" x1="970.1735" y1="388.4174" x2="-64.9807" y2="388.4174">
		<stop  offset="0" style="stop-color:#7FD0DA;stop-opacity:0.6"/>
		<stop  offset="0.1429" style="stop-color:#8DCAD4;stop-opacity:0.5428"/>
		<stop  offset="0.3973" style="stop-color:#ACBFC6;stop-opacity:0.4411"/>
		<stop  offset="0.7308" style="stop-color:#D4A9B0;stop-opacity:0.3077"/>
		<stop  offset="1" style="stop-color:#F3929C;stop-opacity:0.2"/>
	</linearGradient>
	<path class="st9" d="M-5.3,900.9c0,0-201.9-223.9,137-369.3S600.2,133.1,708.4,6.6S970.2-124,970.2-124V900.9H-5.3z"/>
	<linearGradient id="SVGID_10_" gradientUnits="userSpaceOnUse" x1="1260.9377" y1="469.9496" x2="-138.0722" y2="469.9496">
		<stop  offset="0" style="stop-color:#7FD0DA;stop-opacity:0.6"/>
		<stop  offset="0.1429" style="stop-color:#8DCAD4;stop-opacity:0.5428"/>
		<stop  offset="0.3973" style="stop-color:#ACBFC6;stop-opacity:0.4411"/>
		<stop  offset="0.7308" style="stop-color:#D4A9B0;stop-opacity:0.3077"/>
		<stop  offset="1" style="stop-color:#F3929C;stop-opacity:0.2"/>
	</linearGradient>
	<path class="st10" d="M-62.5,1051.5c0,0-255.5-277.2,173.4-457.3S704,101,840.9-55.6s331.4-161.8,331.4-161.8l88.6,1374.6
		L-62.5,1051.5z"/>
	<linearGradient id="SVGID_11_" gradientUnits="userSpaceOnUse" x1="1234.5522" y1="417.0982" x2="-164.4578" y2="417.0982">
		<stop  offset="0" style="stop-color:#7FD0DA;stop-opacity:0.6"/>
		<stop  offset="0.1429" style="stop-color:#8DCAD4;stop-opacity:0.5428"/>
		<stop  offset="0.3973" style="stop-color:#ACBFC6;stop-opacity:0.4411"/>
		<stop  offset="0.7308" style="stop-color:#D4A9B0;stop-opacity:0.3077"/>
		<stop  offset="1" style="stop-color:#F3929C;stop-opacity:0.2"/>
	</linearGradient>
	<path class="st11" d="M-88.9,998.7c0,0-255.5-277.2,173.4-457.3S677.6,48.2,814.5-108.4s331.4-161.8,331.4-161.8l88.6,1374.6
		L-88.9,998.7z"/>
	<linearGradient id="SVGID_12_" gradientUnits="userSpaceOnUse" x1="1174.3003" y1="460.2297" x2="-140.0784" y2="460.2297">
		<stop  offset="0" style="stop-color:#7FD0DA;stop-opacity:0.6"/>
		<stop  offset="0.1429" style="stop-color:#8DCAD4;stop-opacity:0.5428"/>
		<stop  offset="0.3973" style="stop-color:#ACBFC6;stop-opacity:0.4411"/>
		<stop  offset="0.7308" style="stop-color:#D4A9B0;stop-opacity:0.3077"/>
		<stop  offset="1" style="stop-color:#F3929C;stop-opacity:0.2"/>
	</linearGradient>
	<path class="st12" d="M-64.3,1082.7c0,0-256.3-272,173.9-448.6s595-483.9,732.3-637.5s332.4-158.7,332.4-158.7v1244.9H-64.3z"/>
	<linearGradient id="SVGID_13_" gradientUnits="userSpaceOnUse" x1="1155.3955" y1="497.9166" x2="5.9038" y2="497.9166">
		<stop  offset="0" style="stop-color:#7FD0DA;stop-opacity:0.6"/>
		<stop  offset="0.1429" style="stop-color:#8DCAD4;stop-opacity:0.5428"/>
		<stop  offset="0.3973" style="stop-color:#ACBFC6;stop-opacity:0.4411"/>
		<stop  offset="0.7308" style="stop-color:#D4A9B0;stop-opacity:0.3077"/>
		<stop  offset="1" style="stop-color:#F3929C;stop-opacity:0.2"/>
	</linearGradient>
	<path class="st13" d="M72.2,1046.5c0,0-224.1-239.7,152.1-395.4S744.6,224.6,864.7,89.2s290.7-139.9,290.7-139.9v1097.2H72.2z"/>
	<linearGradient id="SVGID_14_" gradientUnits="userSpaceOnUse" x1="1122.4135" y1="570.2304" x2="87.2594" y2="570.2304">
		<stop  offset="0" style="stop-color:#7FD0DA;stop-opacity:0.6"/>
		<stop  offset="0.1429" style="stop-color:#8DCAD4;stop-opacity:0.5428"/>
		<stop  offset="0.3973" style="stop-color:#ACBFC6;stop-opacity:0.4411"/>
		<stop  offset="0.7308" style="stop-color:#D4A9B0;stop-opacity:0.3077"/>
		<stop  offset="1" style="stop-color:#F3929C;stop-opacity:0.2"/>
	</linearGradient>
	<path class="st14" d="M146.9,1082.7c0,0-201.9-223.9,137-369.3s468.6-398.4,576.7-524.9s261.8-130.7,261.8-130.7v1024.9H146.9z"/>
</g>
<g id="Layer_1">
    <circle class="st29" cx="202.9" cy="57.8" r="36.5" id="sun"/>
	<g>
		<g>
			<path class="st15" d="M430.7,134.4c-4.6-4.1-8.7-8.6-12.2-13.8c-1-1.5-1.9-3.1-2.4-4.9c-1.4-6.1,3.5-9.8,8.7-11.4
				c2.3-0.7,4.6-1.2,6.9-1.6c4.7-0.8,8.1,1.6,12.6,1.4c4.1-0.2,7.9-2.5,11.2-4.8c4.7-3.3,10.3-7,15.8-5.3c0.8,0.2,1.5,0.6,2.3,0.6
				c1,0.1,2-0.3,3-0.7c2.9-1.2,5.8-2.4,8.7-3.6c0.7-0.3,1.5-0.6,2.3-0.5c0.7,0,1.3,0.4,1.9,0.7c2.6,1.3,5.4,2.7,7.1,5.1
				c2.9,4,2.1,9.4,3.2,14.2c0.7,3,2.2,5.8,3.7,8.5c2.1,4,4.3,7.9,6.4,11.9c2.8,5.2,5.7,10.5,9.3,15.2c3.3,4.3,7.2,8.1,9.9,12.7
				c2.2,3.9,3.4,8.2,4.7,12.5c0.1,0.3,0.1,0.6,0.1,0.9c-0.1,0.4-0.5,0.7-0.9,1c-4.5,2.8-10.2,3.4-15.5,2.6
				c-4.3-0.7-8.1-2.5-12.2-3.8c-3.1-1-6.3-1.1-9.4-2.5c-10-4.2-20-8.4-29.9-12.9C453.6,150.1,441,143.5,430.7,134.4z"/>
		</g>
		<g>
			<path class="st16" d="M470.4,106.7c0.3-0.4,0.5-0.9,0.8-1.3c1.5-2.6,1.7-4.5,1.7-7.5c0-0.2,0-0.3,0.1-0.5c0.4-0.6,3.4-0.7,4-0.4
				c1.2,0.6,1.1,2.2,0.6,3.2c-0.2,0.5-0.6,0.8-0.7,1.4c-0.1,0.7,0.4,1.3,0.3,2.1c0,0.4-0.2,0.7-0.4,1c-1.1,2-2.6,3.8-4.4,5.3
				c-0.7,0.6-1.5,1.2-2,1.9c-0.4,0.7-0.7,1.5-1.3,2c-0.9,0.8-2.5,0.8-3.2-0.2c-0.1-0.1-0.1-0.2-0.1-0.3c0-0.2,0.1-0.4,0.2-0.6
				C467.6,110.9,469.1,108.9,470.4,106.7z"/>
		</g>
		<g>
			<path class="st16" d="M494.6,145.8c-0.2-0.4-0.4-0.7-0.6-1.1c-0.6-1.2-1.5-2.4-2.9-2.5c-1.3-0.1-2.7,0.3-4-0.1
				c-1.3-0.4-2.1-1.8-3.3-2.6c-1.7-1.2-4-1.2-5.7-2.4c-0.8-0.5-1.4-1.4-1.2-2.3c0.2-1.1,1.5-1.7,2.6-1.7s2.2,0.3,3.3,0.2
				c2.2-0.2,4.5-1.3,6.6-2c1.5-0.5,3.3-1,4.7-0.1c0.2,0.1,0.4,0.3,0.4,0.5c0.2,0.5-0.5,0.9-1,1.1c-0.9,0.4-1.9,0.8-2.6,1.6
				c-0.7,0.7-1.1,1.8-0.8,2.8c0.2,0.5,0.5,1,0.9,1.4c1.6,1.9,3.9,3.2,5.4,5.2c0.7,1,1.2,2.3,0.9,3.5c0,0.2-0.1,0.4-0.3,0.4
				c-0.1,0-0.2,0-0.3,0C495.8,147.3,495.1,146.6,494.6,145.8z"/>
		</g>
		<g>
			<path class="st16" d="M495.9,110.9c0.5,0.9,1.2,1.7,1.9,2.4c0.4,0.4,1.2,0.6,1.5,1.1c1.3,2.4-2.5,1.3-3.5,1
				c-1.7-0.4-3.5-0.8-5.1-0.1c-2.2,0.9-3.2,3.5-5.4,4.4c-0.4,0.2-1,0.2-1.3-0.1c-0.3-0.4,0-0.9,0.3-1.3c1.1-1.6,2.3-3.3,4.1-4.4
				c1.1-0.7,3-1.8,3.8-2.9c0.5-0.7,0.8-1.9,1.7-2c0.5-0.1,1,0.2,1.3,0.6C495.5,110,495.7,110.5,495.9,110.9z"/>
		</g>
		<g>
			<path class="st16" d="M490.1,94.4c-0.6,0.7-0.4,1.7,0.1,2.5c0.5,0.7,1.3,1.2,2,1.7s1.4,1.2,1.6,2c0,0.2,0.1,0.3,0,0.4
				c-0.1,0.1-0.3,0.2-0.4,0c0.3,0.2,0.7,0.5,1.1,0.4c0.2-0.1,0.5-0.3,0.6-0.5c0.3-0.6,0.1-1.3-0.3-1.8s-0.8-1-1.2-1.5
				c-0.9-1.3-1.2-3-2.5-3.9c-0.2-0.1-0.4-0.2-0.6-0.1c-0.1,0.1-0.1,0.1-0.2,0.2c-0.3,0.6-0.4,1.3-0.3,2"/>
		</g>
		<g>
			<path class="st16" d="M451,104.6c-0.9,1.2-0.9,2.8-1,4.3c-0.2,1.3-0.5,2.7-1.1,3.9c-0.3,0.6-0.7,1.2-1.3,1.2
				c-0.6,0-1.1-0.5-1.3-1.1c-0.2-0.6-0.2-1.2-0.4-1.8c-0.3-0.9-1.1-1.7-1.9-2.2c-0.8-0.5-1.8-0.9-2.6-1.4c-0.3-0.2-0.6-0.4-0.6-0.8
				c0.1-0.4,0.6-0.5,1-0.5c1.5,0.1,3,0.6,4.6,0.6c1.6,0,3.3-0.6,3.9-2"/>
		</g>
	</g>
	<g>
		<g>
			<path class="st17" d="M548,219.8c-2.4-3-3.8-6.3-5.8-9.5c-2-3.1-4.5-4.6-7.6-6.9c-6.5-4.8-12.8-10.3-16.7-17.6
				c-2.8-5.4-4-11.4-5.3-17.4c-0.7-3.4-1.4-6.8-0.8-10.2c1.2-7.6,6-7,12.1-8c6.4-1,12.7-2.8,18.8-4.8c12.1-4.1,23.6-9.6,35.5-14.2
				c5.3-2,11.1-4.1,16.4-2.1c1.7,0.6,3.2,1.7,5,1.7c1.1,0,2.2-0.4,3.3-0.4c2.8,0.1,4.6,3,5.3,5.7c1.5,5.8,0.2,12-1.9,17.6
				c-2.1,5.6-5,11-6.6,16.8c-0.4,1.3-0.7,2.7-0.4,4c0.3,1.4,1.2,2.6,1.7,3.9c1.6,3.5,1.1,7.5,0.5,11.2c-1.3,8.5-1,22.2-6.3,29.3
				c-1,1.3-2.1,2.4-3.1,3.7c-6.6,8.6-4.6,23.5-16.7,20C567.7,240.4,553.1,226.3,548,219.8z"/>
		</g>
		<g>
			<path class="st18" d="M572.5,164.5c-2.5-1.1-3.6-4.2-3.1-6.9c0.5-2.7,2.3-5,4.2-7c1.9-2,4-3.9,5.3-6.2c1-1.6,1.4-4-0.1-5.2
				c-1.2-1-3-0.5-4.5-0.6c-1.3-0.1-4.6-1.4-4.6-3.1c-0.1-1.8,4.2-3.1,5.6-3.7c5.5-2.1,12.1-4.9,18.1-3.6c1.9,0.4,3.5,1.2,5.2,2
				c1.7,0.8,2.6,0.2,4.4,0.3c2.8,0.1,4.6,3,5.3,5.7c1.5,5.8,0.2,12-1.9,17.6c-1.5,4.1-3.4,8-5,12c-0.7,1.9-3.3,8-5.5,3
				c-0.6-1.5-0.7-3.3-1.9-4.3c-1.2,1.4-2.5,2.8-4.2,3.5c-1.7,0.7-3.9,0.5-5-1c-1.2-1.7-0.6-4,0.2-5.9c-0.3-0.7-1.3-1-2.1-0.7
				c-0.8,0.3-1.4,0.8-1.9,1.4C578.6,163.8,575.4,165.8,572.5,164.5z"/>
		</g>
		<g>
			<path class="st16" d="M560.5,184.9c2.3-2.4,4.9-4.9,8-6.2c1.5-0.6,3.4-1.1,5-1.1c0.6,0,5.1,1.4,5.2,1.3c0.9-1,0.1-2.7-0.8-3.8
				c-1.6-1.9-3.8-3.7-6.4-3.5c-2.6,0.3-4.4,2.5-6,4.5c-1.9,2.2-3.9,4.3-6,6.2c-0.6,0.5-5.3,3.4-3.7,4.4c0.1,0.1,0.3,0.1,0.5,0.1
				C558,187.2,559.4,186.1,560.5,184.9z"/>
		</g>
		<g>
			<path class="st16" d="M594.6,194.8c0.1-2.2,1.6-4.1,1.8-6.4c0.3-2.9-1.4-3.8-3.5-1.7c-0.8,0.7-1.4,1.6-2.4,2.1
				c-2.5,1.3-5.8,0.9-8.4,2.2c-1.6,0.8-2.9,2.3-3.6,3.9c-0.3,0.8-0.5,1.7-0.4,2.5s0.8,1.6,1.6,1.8c1.3,0.3,2.5-0.9,3.9-1.2
				c2-0.5,4,1.2,5.1,2.9c1,1.5,2.1,3.5,4,3.4c1.9-0.1,2.8-2.3,2.7-4.2C595.3,198.5,594.5,196.7,594.6,194.8z"/>
		</g>
		<g>
			<path class="st16" d="M563.1,148.8c-1.5,1.7-3.5,2.8-5.5,3.8c-1.9,1-4,1.9-6.1,2.2s-4.5,0.1-6.3-1.1c-0.1-0.1-0.3-0.2-0.3-0.3
				c-0.2-0.4,0.2-0.9,0.6-1c0.4-0.1,0.9,0.1,1.3,0.2c1.4,0.3,2.8-0.4,3.9-1.3c1.2-0.8,2.3-1.7,3.7-2.1c1-0.3,2.1-0.2,3.1-0.4
				c0.8-0.2,1.6-0.5,2.3-0.8c1.2-0.5,2.3-1,3.5-1.4c0.3-0.1,0.7-0.2,0.9,0c0.2,0.2,0.1,0.5,0,0.7c-0.3,0.6-0.7,1.1-1.2,1.4"/>
		</g>
		<g>
			<path class="st19" d="M600.2,134c1,0.8,0.8,2.4,0.5,3.7c-0.3,1.3-0.5,2.9,0.6,3.6c0.2,0.1,0.4,0.3,0.7,0.2
				c0.5-0.1,0.6-0.7,0.6-1.1c-0.1-0.5-0.3-0.9-0.2-1.4c0-0.5,0.3-1,0.4-1.5c0.2-1.2-0.6-2.3-1.4-3.2c-0.3-0.4-0.9-0.8-1.2-0.4"/>
		</g>
		<g>
			<path class="st19" d="M591.1,148.6c-0.2,1.1-0.7,2.2-1.4,3.1c-0.3,0.4-0.6,0.7-0.8,1.1c-0.3,0.5-0.6,1.1-0.7,1.7
				c0.7,0.3,1.5-0.1,2-0.6c0.5-0.6,0.7-1.3,0.9-2c0.3-1,0.5-2.2,0.2-3.2"/>
		</g>
	</g>
	<g>
		<g>
			<path class="st17" d="M296.5,172.2c-2.5,1.3-5,1.9-7.5,2.9c-2.5,1-3.9,2.6-5.9,4.5c-4.3,4-9.1,7.8-14.8,9.5
				c-4.2,1.3-8.7,1.3-13.1,1.4c-2.5,0-5,0.1-7.4-0.8c-5.3-1.9-4.2-5.2-4.1-9.7c0.1-4.7-0.3-9.4-0.9-14c-1.3-9.2-3.6-18.1-5.4-27.2
				c-0.8-4-1.4-8.5,0.7-12c0.7-1.1,1.6-2.1,1.9-3.3c0.1-0.8,0-1.6,0.2-2.4c0.4-2,2.8-2.9,4.8-3c4.3-0.3,8.6,1.5,12.3,3.7
				c3.7,2.3,7.2,5,11.1,7c0.9,0.4,1.8,0.9,2.8,0.8c1,0,2-0.5,3-0.7c2.7-0.7,5.5,0.2,8.1,1.2c5.9,2.1,15.7,3.7,20,8.4
				c0.8,0.9,1.4,1.8,2.2,2.7c5.2,5.9,9.2,11.2,5,19.4C306.8,165.7,301.8,169.4,296.5,172.2z"/>
		</g>
		<g>
			<path class="st18" d="M260.4,147.3c-1.1,1.7-3.5,2-5.4,1.3c-1.9-0.7-3.2-2.3-4.4-3.9c-1.2-1.6-2.2-3.3-3.7-4.6
				c-1-0.9-2.7-1.6-3.7-0.6c-0.8,0.7-0.7,2.1-1,3.1c-0.3,0.9-1.6,3.1-2.9,2.9c-1.3-0.2-1.6-3.4-1.9-4.5c-0.8-4.2-1.9-9.3-0.1-13.4
				c0.5-1.3,1.3-2.3,2.1-3.4c0.8-1.1,0.5-1.8,0.8-3.1c0.4-2,2.8-2.9,4.8-3c4.3-0.3,8.6,1.5,12.3,3.7c2.7,1.6,5.2,3.5,7.9,5.2
				c1.2,0.8,5.3,3.4,1.4,4.3c-1.1,0.2-2.4,0-3.3,0.8c0.8,1.1,1.6,2.2,1.9,3.5c0.3,1.3-0.2,2.8-1.4,3.4c-1.4,0.7-2.9-0.1-4.2-0.9
				c-0.6,0.1-0.9,0.8-0.8,1.4s0.4,1.1,0.7,1.6C260.7,142.8,261.7,145.4,260.4,147.3z"/>
		</g>
		<g>
			<path class="st16" d="M273.3,158.6c-1.4-2-2.9-4.1-3.3-6.6c-0.2-1.1-0.3-2.6-0.1-3.7c0.1-0.4,1.7-3.5,1.6-3.5
				c-0.6-0.8-1.9-0.4-2.8,0.1c-1.6,0.9-3.2,2.2-3.3,4.1c-0.2,1.9,1.2,3.5,2.4,4.9c1.3,1.6,2.5,3.3,3.6,5.1c0.3,0.5,1.7,4.2,2.7,3.2
				c0.1-0.1,0.1-0.2,0.1-0.3C274.6,160.7,274,159.5,273.3,158.6z"/>
		</g>
		<g>
			<path class="st16" d="M285,135.6c-1.6-0.4-2.7-1.7-4.3-2.1c-2-0.6-2.9,0.5-1.7,2.3c0.4,0.6,0.9,1.2,1.2,2
				c0.6,1.9-0.2,4.3,0.5,6.3c0.4,1.3,1.2,2.4,2.3,3.1c0.5,0.3,1.1,0.6,1.7,0.6c0.6,0,1.3-0.3,1.5-0.9c0.4-0.9-0.3-1.9-0.3-2.9
				c-0.1-1.5,1.4-2.7,2.8-3.2c1.2-0.5,2.8-1,3-2.4s-1.3-2.3-2.6-2.5C287.7,135.6,286.3,135.9,285,135.6z"/>
		</g>
		<g>
			<path class="st16" d="M247.9,151.9c1,1.3,1.6,2.8,2,4.4c0.4,1.5,0.8,3.1,0.7,4.6s-0.6,3.2-1.6,4.3c-0.1,0.1-0.2,0.2-0.3,0.2
				c-0.3,0.1-0.6-0.3-0.6-0.6c0-0.3,0.2-0.6,0.3-0.9c0.4-1,0.1-2-0.4-3c-0.4-0.9-0.9-1.9-1-2.9c-0.1-0.8,0.1-1.5,0.1-2.3
				c0-0.6-0.1-1.2-0.2-1.7c-0.2-0.9-0.4-1.8-0.6-2.7c-0.1-0.2-0.1-0.5,0.1-0.6c0.2-0.1,0.4,0,0.5,0.1c0.4,0.3,0.7,0.7,0.8,1.1"/>
		</g>
		<g>
			<path class="st19" d="M242.4,123.4c0.7-0.6,1.8-0.2,2.7,0.1c0.9,0.4,2,0.7,2.7,0.1c0.1-0.1,0.2-0.3,0.2-0.5
				c0-0.3-0.4-0.6-0.7-0.6c-0.3,0-0.7,0.1-1,0c-0.4-0.1-0.7-0.4-1-0.5c-0.8-0.3-1.7,0.1-2.5,0.6c-0.3,0.2-0.7,0.6-0.4,0.8"/>
		</g>
		<g>
			<path class="st19" d="M251.6,131.9c0.8,0.3,1.4,0.8,2,1.4c0.2,0.2,0.4,0.5,0.6,0.7c0.3,0.3,0.7,0.6,1.1,0.8
				c0.3-0.5,0.2-1.1-0.2-1.5c-0.3-0.4-0.8-0.7-1.3-0.9c-0.7-0.3-1.5-0.7-2.3-0.5"/>
		</g>
	</g>
	<circle class="st20" cx="395.8" cy="321.2" r="201.9"/>
	<g>
		<path class="st21" d="M374.5,126.3c6.5,2.8,13.5,6.2,16.1,12.7c0.6,1.6,0.9,3.3,2,4.7c0.4,0.5,1,1,1.3,1.6
			c0.3,0.6,0.4,1.2,0.5,1.8c0.5,3.6,0.4,7.3-1,10.7c-0.7,1.7-1.8,3.3-3.1,4.7c-1.3,1.5-2.8,2-4.3,3.2c-0.3,0.2-0.6,0.6-0.5,1
			c0.1,0.4,0.5,0.4,0.9,0.5c0.8,0.1,1.6,0,2.4-0.1c0.9-0.2,1.8-0.4,2.7-0.3c1.8,0.3,2.8,2.3,4.3,3.4c1.3,1,3,1.3,4.5,0.8
			c0.3-0.1,0.7-0.2,0.9-0.5c0.8-0.7,0.8-2,0.6-3.1c1.2-0.1,2.3,0.7,3.5,0.9c1,0.2,1.9-0.1,2.7-0.8c0.3-0.2,0.4-0.5,0.4-0.8
			c-0.1-0.1-0.1-0.3-0.3-0.4c-1.8-1.8-4.5-1.7-6.2-3.7c-2.1-2.5-1.5-6.2-0.8-9.4c1.1-5.1,2.5-10.6,6.7-13.9c1.2-1,2.6-1.7,4-2.5
			c7.3-4.4,12.5-11.5,17.5-18.4c0.1-0.8-0.9-1.4-1.6-1.3c-0.8,0.2-1.4,0.8-1.9,1.4l-8.2,9.1c-3.2,3.5-6.8,7.2-11.5,7.6
			c1.5-4.2,2.4-8.6,2.5-13c-2.7,0.6-3.3,4.2-4,6.9c-0.7,2.7-2.1,5.2-4,7.2c-0.8,0.8-1.7,1.5-2.9,1.6c-1.5,0-2.7-1.3-3.4-2.7
			c-1.5-2.8-2-6.1-1.4-9.3"/>
		<path class="st22" d="M425.1,90.3c-3-1.1-5.9-0.6-9-0.5c0.3-3-1.6-6.2-4.8-5.9c-0.9,0.1-1.7,0.9-2.6,1c-0.7,0-1.4-0.7-2.2-0.6
			c-1.8,0.1-3.4,0.3-4.7,1.7c0.8-0.3,1.2-1.3,0.9-2.1s-1-1.4-1.8-1.8c-1.4-0.7-3.1-0.8-4.6-0.2c-1,0.3-2,1-3.1,0.7
			c-0.6-0.1-1.1-0.5-1.6-0.8c-2.9-1.8-6.6-0.9-8.4,2c-0.4,0.6-0.6,1.3-0.8,2c-2.9-1.2-8.9-1.2-8.7,3.5c-1.2,0.1-2.4,0.3-3.2,1.1
			c-0.8,0.8-1,2.4,0,3.1c-4.3-0.2-8.4,1.9-10.8,5.5c-0.5,0.8-0.8,2.3,0.2,2.6c-0.7,0.5-1.1,1.3-1,2.2l1.6,0.9
			c-2.7,1.2-4.6,3.7-4.9,6.7l2.3,0.4c-3.2,2.6-6.8,6.3-5.6,10.3c1.1,3.6,5.9,4.9,9.5,3.6c-0.6,1-0.7,2.3,0,3.1
			c0.7,0.9,2.3,0.9,2.8-0.1c0,2.7,3.3,3.3,5.4,3.2c1.5-0.1,3,0,4.4-0.5c0.7-0.3,3.3-1.4,3.6-2.2c-0.4,1.6,1.1,3.2,2.8,3
			s3-1.6,4.4-2.5c0,0,1.2,2.4,4.4,1.9c2.8-0.3,3.1-2.9,3.1-1.7c0.9,1.6,3.4,1.3,4.7,0.1c1-0.9,1.7-2.1,2.6-3.1
			c1.6-1.8,0.8,1.1,1.2,2.2c0.5,1.5,2,2.4,3.5,2.2c1.5-0.2,2.7-1.4,3.1-2.8c0.9,2.1,3.4,3.1,5.5,2.2c0.2-0.1,0.5-0.2,0.7-0.4
			c0.8-0.6,0.8-0.7,1.5,0.1c0.5,0.5,0.9,1.1,1.6,1.3c1.2,0.4,2.6-0.4,3.2-1.6c0.6-1.1,0.6-2.5,0.6-3.8c1.3,0.5,2.5,1.5,3.8,2.1
			c1.3,0.6,2.9,0.9,4.1,0.2c1.2-0.7,1.7-2.7,0.5-3.6c2.3,1.9,5.6,2.9,8.3,1.6s3.8-5.4,1.6-7.4c2,1.1,4.2,2,6.4,2.8
			c0.8,0.3,1.7,0.5,2.3,0c0.7-0.5,0.7-1.6,0.6-2.4c-1-6.8-6.3-12.7-12.9-14.5c0.5-1.6,3.5-2,3-3.6c-0.2-0.4-0.5-0.7-0.9-1
			c-2.2-1.5-4.7-2.6-7.4-3C430.5,94.1,428,91.4,425.1,90.3z"/>
	</g>
	<g>
		<path class="st21" d="M307,143.2c0.2,2.1,0.2,4.3,0.8,6.2c0.7,2.2,1.2,4.4,1.4,6.7c0.1,1.3-0.1,2.2-1.1,3.1
			c-0.2,0.1-0.3,0.3-0.5,0.5c-0.1,0.2-0.2,0.5-0.1,0.7c0.1,0.3,0.5,0.4,0.8,0.4c0.3,0.1,0.6,0.1,0.8,0.1c0.3,0,0.7-0.2,1-0.1
			c0.2,0.1,0.4,0.3,0.6,0.4c0.6,0.5,1.3,0.6,2,0.5c0.3-0.1,0.5-0.4,0.8-0.5c0.4-0.1,0.7,0.2,1.1,0c0.3-0.1,0.5-0.6,0.8-0.8
			c0.7-0.4,3,0.4,2.6-1.3c-0.1-0.4-0.4-0.7-0.8-1c0.4,0,0.9,0,1.3-0.1c0.2,0,0.3-0.1,0.4-0.2c0.2-0.3,0.1-0.7-0.2-0.9
			c-0.3-0.2-0.7-0.2-1-0.3c-1.5-0.4-1.6-1.9-2-3.2c-0.5-1.6-0.9-3.2-1.1-4.9c-0.2-1.6-0.1-3.2-0.5-4.8c-0.1-0.3-0.2-0.6-0.5-0.9
			c-0.3-0.2-0.5-0.3-0.9-0.4c-2.2-0.6-4.5-0.5-6.6,0.2"/>
		<path class="st23" d="M295.6,121c0.6,0.4,1.4,0.6,2.2,0.5c-1.5,2.8-2.6,5.8-3.3,8.9c0.5,0.4,1.2,0.5,1.8,0.4l-2,6.4
			c-0.2,0.8-0.5,1.7-0.2,2.4c0.3,0.8,1.4,1.2,2,0.6l-1.9,7c-0.1,0.5-0.2,0.9-0.1,1.4c0.1,0.7,0.7,1.1,1.3,1.4
			c1.8,0.9,3.9,0.9,5.7-0.1c-0.6,1.2,0.5,2.7,1.8,2.9c1.3,0.2,2.6-0.8,3.2-1.9c0.2,1.3,1.4,2.3,2.7,2.1s2.3-1.4,2.1-2.7
			c0-0.1,0-0.2,0-0.2c1.1,1,2.3,1.9,3.6,2.6c0.4,0.2,0.8,0.4,1.2,0.2c0.3-0.2,0.4-0.6,0.5-0.9l0.8-3.7c1.7,0.7,3.5,1.3,5.2,0.8
			c1.7-0.5,2.9-2.9,1.6-4.2c1.2-0.6,2.9,0.8,3.9-0.1c0.6-0.6,0.3-1.5,0-2.3c-1.2-2.6-2.8-4.9-4.9-6.8c0.6,0.4,1.4-0.2,1.5-0.8
			s-0.1-1.3-0.5-1.9c-1.1-2.1-2.6-4-4.4-5.6c0.6,0.5,1.7-0.1,1.8-0.9c0.2-0.8-0.3-1.6-0.8-2.3c-1-1.3-2.3-2.4-3.8-3.2
			c1.3-0.3,1.8-2,1.3-3.3c-0.5-1.2-1.6-2.1-2.6-2.9c-2.6-2.1-4.9-4.5-6.9-7.1l1.2,0.1c0.1-1.9-1.7-3.2-3.4-4.2
			c-0.9-0.5-3.8-3.1-4.9-2.4c-0.4,0.3-0.5,2.5-0.7,3c-0.3,1.2-0.7,2.4-1.3,3.5c-0.5,1-1,2-1.1,3c0.4,0.2,0.9,0.2,1.3,0.1
			C299.6,111.4,295.7,121.1,295.6,121z"/>
	</g>
	<g>
		<path class="st21" d="M491.7,138.7c-0.8,1.8-1.8,3.6-2.2,5.4c-0.4,2.1-1,4.1-1.9,6.1c-0.5,1.1-1.1,1.7-2.3,2
			c-0.2,0-0.4,0.1-0.6,0.2c-0.2,0.1-0.3,0.3-0.4,0.5c0,0.3,0.2,0.5,0.4,0.7c0.2,0.2,0.4,0.3,0.6,0.5c0.3,0.1,0.6,0.2,0.9,0.4
			c0.1,0.2,0.2,0.4,0.3,0.6c0.2,0.6,0.8,1.1,1.4,1.3c0.3,0.1,0.6-0.1,0.9,0c0.3,0.1,0.5,0.5,0.9,0.5c0.3,0.1,0.7-0.2,1-0.2
			c0.8,0,2.3,1.7,2.6,0.2c0.1-0.4,0-0.8-0.2-1.2c0.4,0.2,0.7,0.4,1.1,0.5c0.1,0.1,0.3,0.1,0.4,0c0.3-0.1,0.4-0.5,0.2-0.8
			s-0.4-0.5-0.7-0.7c-1-1-0.4-2.3-0.2-3.5c0.3-1.5,0.8-3,1.4-4.4c0.6-1.4,1.4-2.7,1.8-4.1c0.1-0.3,0.1-0.6,0-0.9
			c-0.1-0.3-0.3-0.5-0.5-0.7c-1.5-1.5-3.4-2.5-5.4-2.9"/>
		<path class="st23" d="M492.6,115.6c0.3,0.7,0.9,1.2,1.5,1.4c-2.5,1.6-4.8,3.5-6.7,5.7c0.2,0.5,0.7,1,1.3,1.2l-4.5,4.2
			c-0.6,0.5-1.2,1.1-1.3,1.9c-0.1,0.8,0.6,1.7,1.3,1.4l-4.7,4.8c-0.3,0.3-0.6,0.6-0.7,1.1c-0.2,0.6,0.1,1.3,0.4,1.8
			c1,1.6,2.8,2.5,4.7,2.5c-1,0.7-0.8,2.4,0.2,3.2c1,0.7,2.5,0.6,3.5-0.1c-0.5,1.2,0.1,2.5,1.3,2.9s2.5-0.1,2.9-1.3
			c0-0.1,0-0.1,0.1-0.2c0.4,1.3,1,2.6,1.8,3.7c0.2,0.3,0.5,0.7,0.9,0.7c0.3,0,0.6-0.3,0.8-0.5l2.4-2.6c1,1.3,2.2,2.7,3.8,3
			c1.6,0.3,3.6-1,3.2-2.6c1.3,0,2,2,3.2,1.7c0.7-0.2,1-1.1,1-1.9c0.2-2.6-0.1-5.2-0.8-7.7c0.3,0.6,1.2,0.5,1.6,0
			c0.4-0.5,0.5-1.2,0.5-1.8c0.1-2.2-0.3-4.4-1-6.5c0.3,0.7,1.4,0.7,1.9,0.1c0.5-0.6,0.5-1.4,0.4-2.2c-0.2-1.5-0.8-3-1.6-4.3
			c1.2,0.3,2.4-0.9,2.5-2.1s-0.3-2.4-0.8-3.6c-1.1-2.9-1.9-5.9-2.4-8.9l0.9,0.6c1-1.5,0.1-3.4-0.8-4.9c-0.5-0.8-1.7-4.2-2.9-4.1
			c-0.5,0-1.6,1.8-1.9,2.1c-0.8,0.8-1.7,1.6-2.6,2.3c-0.8,0.6-1.7,1.1-2.3,1.9c0.2,0.4,0.6,0.6,1,0.7
			C500.2,109.5,492.6,115.6,492.6,115.6z"/>
	</g>
	<path class="st24" d="M219.5,222.7c0,0,56.9,62.7,78.6,94.5c29.8,43.8,86.2,153.5,103.5,152.5c17.2-1,84.7-93.5,132.6-123.5
		c47.9-30,63.6-32.9,63.6-32.9s2,20.9-3.6,46c0,0-19.2,3.7-67.1,33.7c-47.9,30-115.4,122.5-132.6,123.5c-17.2,1-72.4-98.8-102-142.7
		c-27.9-41.4-89.6-112.3-89.6-112.3S214,231.9,219.5,222.7z"/>
	<g>
		<path class="st21" d="M443,189.9c3.3,2,7,4.3,7.9,8.1c0.2,0.9,0.3,1.9,0.8,2.7c0.2,0.3,0.5,0.6,0.6,0.9c0.1,0.3,0.2,0.7,0.2,1
			c0,2-0.3,4-1.3,5.8c-0.5,0.9-1.2,1.7-2,2.4c-0.8,0.7-1.7,0.9-2.6,1.4c-0.2,0.1-0.4,0.3-0.3,0.5c0,0.2,0.3,0.3,0.5,0.3
			c0.4,0.1,0.9,0.1,1.3,0.1c0.5,0,1-0.1,1.5,0c1,0.3,1.4,1.4,2.1,2.2c0.6,0.6,1.5,0.9,2.4,0.8c0.2,0,0.4-0.1,0.5-0.2
			c0.5-0.3,0.5-1,0.5-1.6c0.7,0,1.2,0.6,1.9,0.7c0.5,0.1,1.1,0.1,1.5-0.2c0.2-0.1,0.3-0.2,0.3-0.4c0-0.1-0.1-0.2-0.1-0.2
			c-0.9-1.1-2.3-1.3-3.1-2.5c-1-1.5-0.4-3.5,0.2-5.2c1-2.7,2.1-5.6,4.6-7.1c0.7-0.4,1.6-0.7,2.3-1.1c4.3-1.9,7.6-5.4,10.8-8.8
			c0.1-0.4-0.4-0.8-0.8-0.8s-0.8,0.3-1.2,0.6l-5.1,4.4c-2,1.7-4.2,3.5-6.8,3.4c1.1-2.2,1.9-4.5,2.3-6.9c-1.5,0.2-2.1,2.1-2.6,3.5
			c-0.6,1.4-1.5,2.7-2.7,3.6c-0.5,0.4-1.1,0.7-1.7,0.7c-0.8-0.1-1.4-0.9-1.7-1.7c-0.6-1.7-0.7-3.5-0.1-5.2"/>
		<path class="st22" d="M473.1,173.8c-1.5-0.8-3.2-0.8-4.9-0.9c0.4-1.6-0.5-3.5-2.2-3.6c-0.5,0-1,0.4-1.5,0.4
			c-0.4,0-0.7-0.5-1.2-0.5c-1-0.1-1.9-0.1-2.7,0.6c0.5-0.1,0.7-0.6,0.6-1.1c-0.1-0.5-0.4-0.8-0.8-1.1c-0.7-0.5-1.6-0.6-2.5-0.5
			c-0.6,0.1-1.2,0.4-1.7,0.2c-0.3-0.1-0.5-0.4-0.8-0.6c-1.4-1.2-3.5-0.9-4.7,0.5c-0.2,0.3-0.4,0.6-0.6,1c-1.5-0.8-4.8-1.3-5,1.3
			c-0.6,0-1.3,0-1.8,0.4c-0.5,0.4-0.7,1.2-0.2,1.7c-2.3-0.4-4.7,0.4-6.3,2.3c-0.4,0.4-0.6,1.2-0.1,1.4c-0.4,0.2-0.7,0.6-0.7,1.1
			l0.8,0.6c-1.6,0.4-2.8,1.7-3.1,3.3l1.2,0.4c-1.9,1.2-4.2,3-3.7,5.2c0.4,2.1,2.9,3.1,4.9,2.6c-0.4,0.5-0.5,1.2-0.2,1.7
			c0.3,0.5,1.2,0.6,1.5,0.1c-0.2,1.5,1.6,2,2.7,2.1c0.8,0,1.6,0.2,2.4,0c0.4-0.1,1.9-0.5,2.1-0.9c-0.4,0.9,0.4,1.8,1.3,1.8
			c0.9,0,1.8-0.6,2.6-1.1c0,0,0.5,1.4,2.3,1.4c1.6,0.1,1.9-1.4,1.8-0.7c0.4,0.9,1.8,0.9,2.6,0.4c0.6-0.4,1.1-1,1.6-1.5
			c1-0.9,0.4,0.7,0.5,1.3c0.2,0.8,0.9,1.4,1.8,1.4c0.8,0,1.6-0.5,1.9-1.3c0.4,1.2,1.6,1.9,2.8,1.6c0.1,0,0.3-0.1,0.4-0.2
			c0.5-0.3,0.5-0.3,0.8,0.2c0.2,0.3,0.4,0.6,0.8,0.8c0.6,0.3,1.4-0.1,1.8-0.6c0.4-0.6,0.5-1.3,0.6-2c0.7,0.4,1.3,1,1.9,1.4
			c0.7,0.4,1.5,0.7,2.2,0.4c0.7-0.3,1.1-1.4,0.5-1.9c1.1,1.2,2.9,2,4.4,1.4c1.6-0.5,2.5-2.7,1.4-3.9c1,0.7,2.1,1.4,3.3,1.9
			c0.4,0.2,0.9,0.4,1.3,0.1c0.4-0.2,0.5-0.8,0.5-1.3c-0.1-3.8-2.6-7.4-6.1-8.8c0.4-0.8,2-0.8,1.9-1.7c-0.1-0.2-0.2-0.4-0.4-0.6
			c-1.1-1-2.4-1.7-3.8-2.2C475.8,176.2,474.6,174.6,473.1,173.8z"/>
	</g>
	<g>
		<path class="st21" d="M328.3,211.2c4,1.1,8.4,2.5,10.4,6.1c0.5,0.9,0.8,1.9,1.6,2.6c0.3,0.3,0.7,0.5,0.9,0.8
			c0.2,0.3,0.4,0.6,0.4,1c0.6,2,0.8,4.2,0.3,6.3c-0.3,1.1-0.8,2.1-1.4,3c-0.7,1-1.5,1.4-2.2,2.2c-0.2,0.2-0.3,0.4-0.2,0.6
			c0.1,0.2,0.4,0.2,0.6,0.2c0.5,0,0.9-0.1,1.4-0.3c0.5-0.2,1-0.4,1.5-0.4c1.1,0,1.8,1.1,2.8,1.6c0.8,0.5,1.8,0.5,2.7,0.1
			c0.2-0.1,0.4-0.2,0.5-0.3c0.4-0.5,0.3-1.2,0.1-1.8c0.7-0.2,1.4,0.2,2.1,0.2c0.6,0,1.1-0.2,1.5-0.7c0.1-0.1,0.2-0.3,0.2-0.5
			c0-0.1-0.1-0.1-0.2-0.2c-1.2-0.9-2.8-0.6-3.9-1.7c-1.4-1.3-1.4-3.5-1.2-5.4c0.2-3.1,0.6-6.4,2.7-8.6c0.6-0.7,1.4-1.2,2.1-1.8
			c3.9-3.2,6.3-7.7,8.7-12.2c0-0.5-0.6-0.8-1.1-0.6c-0.4,0.2-0.7,0.6-1,1l-4,6c-1.6,2.3-3.4,4.8-6,5.4c0.5-2.6,0.7-5.2,0.4-7.8
			c-1.5,0.6-1.6,2.7-1.7,4.3c-0.2,1.6-0.8,3.2-1.8,4.5c-0.4,0.5-0.9,1-1.5,1.1c-0.9,0.1-1.7-0.6-2.2-1.3c-1.1-1.5-1.7-3.4-1.6-5.3"
			/>
		<path class="st22" d="M354.8,186.1c-1.8-0.4-3.5,0.1-5.3,0.4c-0.1-1.8-1.5-3.5-3.3-3c-0.5,0.1-0.9,0.7-1.4,0.8
			c-0.4,0.1-0.9-0.3-1.3-0.2c-1,0.2-1.9,0.5-2.6,1.4c0.5-0.2,0.6-0.9,0.3-1.3c-0.2-0.4-0.7-0.7-1.2-0.9c-0.9-0.3-1.8-0.2-2.7,0.2
			c-0.6,0.3-1.1,0.7-1.7,0.7c-0.3,0-0.7-0.2-1-0.4c-1.8-0.8-3.9,0-4.7,1.8c-0.2,0.4-0.3,0.8-0.3,1.2c-1.8-0.4-5.3,0-4.8,2.7
			c-0.7,0.1-1.4,0.4-1.8,0.9c-0.4,0.5-0.4,1.5,0.2,1.8c-2.5,0.2-4.8,1.8-5.8,4.1c-0.2,0.5-0.3,1.4,0.3,1.5c-0.4,0.3-0.5,0.9-0.4,1.4
			l1,0.4c-1.5,0.9-2.4,2.6-2.3,4.3l1.4,0c-1.7,1.8-3.4,4.2-2.4,6.4c1,2,3.9,2.4,5.8,1.3c-0.2,0.6-0.2,1.4,0.3,1.8
			c0.5,0.5,1.4,0.3,1.6-0.3c0.2,1.6,2.2,1.6,3.4,1.4c0.8-0.2,1.7-0.2,2.5-0.7c0.4-0.2,1.8-1.1,1.9-1.6c-0.1,1,0.9,1.8,1.9,1.5
			s1.6-1.2,2.4-1.8c0,0,0.9,1.3,2.7,0.8c1.6-0.4,1.6-2,1.7-1.2c0.6,0.9,2.1,0.5,2.8-0.3c0.5-0.6,0.8-1.4,1.2-2
			c0.8-1.2,0.6,0.6,0.9,1.2c0.4,0.8,1.3,1.2,2.2,1c0.9-0.3,1.5-1,1.6-1.9c0.7,1.2,2.2,1.5,3.4,0.8c0.1-0.1,0.3-0.2,0.4-0.3
			c0.4-0.4,0.4-0.4,0.9-0.1c0.3,0.3,0.6,0.5,1,0.6c0.7,0.2,1.5-0.5,1.7-1.2c0.2-0.7,0.1-1.5,0-2.2c0.8,0.2,1.6,0.6,2.4,0.9
			c0.8,0.2,1.8,0.3,2.4-0.2s0.8-1.7,0-2.1c1.5,0.9,3.5,1.2,5,0.2s1.8-3.5,0.3-4.4c1.3,0.5,2.6,0.8,3.9,1.1c0.5,0.1,1,0.1,1.4-0.2
			c0.4-0.4,0.3-1,0.1-1.5c-1.1-3.9-4.7-6.9-8.7-7.4c0.2-1,1.9-1.4,1.5-2.3c-0.1-0.2-0.3-0.4-0.6-0.5c-1.4-0.7-3-1.1-4.5-1.1
			C358.3,187.8,356.6,186.5,354.8,186.1z"/>
	</g>
	<g class="st25"  id="cloud2">
		<path class="st18" d="M587,81.1c-4.5,1-9.1,1.4-13.6,1.3c-1.6,0-3.3-0.2-4.8-0.8c-3.4-1.5-5.1-5.9-3.6-9.2
			c1.4-3.4,5.8-5.2,9.2-3.7c-2-3-1.4-7.6,1.3-10c2.7-2.4,7.3-2.5,10.1-0.1c-1.7-4.3-1-9.5,1.6-13.3s6.9-6.5,11.4-7.3
			c5.8-1.1,12.9,1.6,14,7.3c1.4-5.8,7.3-9.9,13.3-10c6-0.1,11.7,3.3,15.2,8.2c3.6,4.8,5.2,10.8,5.5,16.8c2.9-1.7,6.1-2.9,9.5-2.7
			c3.3,0.2,6.7,2,8,5.1s0.3,7.1-2.7,8.6c4.7,0.5,6.5,7.6,3.1,10.9c-3.4,3.3-9.6,2.3-12.5-1.5c-4,7.4-15.5,9.2-21.5,3.4
			c-5.6,6.5-14.3,10.1-22.8,9.4c-8.5-0.7-16.6-5.6-21.1-12.8"/>
	</g>
	<g class="st26" id="cloud3">
		<path class="st18" d="M593.6,258.7c-3.8-4.7-2.7-12.2,1.4-16.6c4.1-4.4,10.5-6.3,16.5-6.3c6.6,0,14.6,3.6,14.5,10.2
			c1.9-5.2,7.5-8.7,12.9-8.2c5.4,0.5,10.3,5,11.2,10.4c7.8-7.2,20.1-9.1,29.7-4.4c9.5,4.6,15.7,15.5,14.8,26.1
			c10.1-5.6,24.8,3.5,24.3,15c-0.5,11.5-15.8,19.4-25.5,13.1c-4.4,7.4-12.8,12.3-21.5,12.5s-17.2-4.3-22-11.5
			c-4.5,12.7-17.4,21.9-30.9,22c-13.5,0.1-26.6-8.8-31.4-21.3c-8.4,7.2-22.7,4.4-28.8-4.8c-6-9.1-3.8-22.5,4.2-30.1
			c8-7.6,20.4-9.5,30.8-6"/>
	</g>
	<g class="st27" id="cloud4">
		<path class="st18" d="M135.5,336c-3.8-4.7-2.7-12.2,1.4-16.6c4.1-4.4,10.5-6.3,16.5-6.3c6.6,0,14.6,3.6,14.5,10.2
			c1.9-5.2,7.5-8.7,12.9-8.2c5.4,0.5,10.3,5,11.2,10.4c7.8-7.2,20.1-9.1,29.7-4.4c9.5,4.6,15.7,15.5,14.8,26.1
			c10.1-5.6,24.8,3.5,24.3,15c-0.5,11.5-15.8,19.4-25.5,13.1c-4.4,7.4-12.8,12.3-21.5,12.5s-17.2-4.3-22-11.5
			c-4.5,12.7-17.4,21.9-30.9,22c-13.5,0.1-26.6-8.8-31.4-21.3c-8.4,7.2-22.7,4.4-28.8-4.8c-6-9.1-3.8-22.5,4.2-30.1
			c8-7.6,20.4-9.5,30.8-6"/>
	</g>
	<g class="st27" id="cloud5">
		<path class="st18" d="M691.8,347.4c-1.6-2-1.1-5.1,0.6-7s4.4-2.7,7-2.7c2.8,0,6.2,1.5,6.1,4.3c0.8-2.2,3.2-3.7,5.5-3.4
			c2.3,0.2,4.4,2.1,4.7,4.4c3.3-3,8.5-3.8,12.5-1.9c4,2,6.6,6.5,6.2,11c4.3-2.4,10.5,1.5,10.3,6.4c-0.2,4.9-6.7,8.2-10.7,5.5
			c-1.9,3.1-5.4,5.2-9.1,5.3c-3.7,0.1-7.3-1.8-9.3-4.9c-1.9,5.3-7.4,9.2-13,9.3c-5.7,0.1-11.2-3.7-13.3-9c-3.5,3-9.6,1.8-12.1-2
			c-2.5-3.9-1.6-9.5,1.8-12.7s8.6-4,13-2.5"/>
	</g>
	<g>
		<path class="st28" d="M409.2,193.4c-0.1-2.6,1.7-5.2,4.2-6s5.5,0.3,6.9,2.5c0.2,0.3,0.4,0.7,0.7,1c1.3,1,3.1-0.5,4.7-0.1
			c0.9,0.2,1.6,1.1,2.4,1.6c1.2,0.6,2.7,0.4,4,0.4c1.4,0.1,3,0.8,3,2.2c-7.5,0-15.1,0-22.6,0c-1.2,0-2.5-0.1-3.3-1"/>
	</g>
	<g>
		<path class="st28" d="M522,260.1c-0.1-4.3,2.8-8.5,6.9-9.8c4.1-1.3,8.9,0.4,11.2,4c0.4,0.6,0.7,1.2,1.2,1.6
			c2.1,1.6,5.1-0.8,7.6-0.2c1.5,0.4,2.5,1.8,3.9,2.5c2,1,4.3,0.6,6.5,0.7c2.2,0.1,4.8,1.3,4.9,3.5c-12.3,0-24.5,0-36.8,0
			c-1.9,0-4.1-0.1-5.4-1.6"/>
	</g>
	<g>
		<path class="st28" d="M291.8,222.3c0.1-4.3-2.8-8.5-6.9-9.8s-8.9,0.4-11.2,4c-0.4,0.6-0.7,1.2-1.2,1.6c-2.1,1.6-5.1-0.8-7.6-0.2
			c-1.5,0.4-2.5,1.8-3.9,2.5c-2,1-4.3,0.6-6.5,0.7s-4.8,1.3-4.9,3.5c12.3,0,24.5,0,36.8,0c1.9,0,4.1-0.1,5.4-1.6"/>
	</g>
	<g class="st30" id="cloud1">
		<path class="st18" d="M93.5,114.1c-8.1,1.8-16.3,2.6-24.6,2.4c-3-0.1-6-0.3-8.7-1.5c-6.1-2.7-9.2-10.6-6.6-16.7
			c2.6-6.1,10.6-9.3,16.6-6.7c-3.6-5.5-2.6-13.7,2.4-18.1s13.2-4.5,18.2-0.2c-3.1-7.8-1.8-17.1,2.8-24.1s12.4-11.7,20.7-13.2
			c10.4-1.9,23.3,2.9,25.3,13.2c2.4-10.5,13.2-17.9,24-18.1c10.8-0.2,21.1,6,27.5,14.8c6.4,8.7,9.3,19.6,9.9,30.4
			c5.2-3.1,11.1-5.2,17.1-4.9c6,0.4,12,3.7,14.5,9.1c2.5,5.4,0.6,12.9-4.8,15.6c8.5,1,11.8,13.8,5.6,19.8c-6.1,6-17.3,4.1-22.6-2.7
			c-7.2,13.4-28,16.7-38.9,6.1c-10.1,11.7-25.9,18.2-41.3,17c-15.4-1.2-30-10-38.1-23.2"/>
	</g>
	<g>
		<g>
			<path class="st29" d="M467.6,216c0.2-0.4,0.4-0.7,0.6-1c0.1,0.1,0.3,0.2,0.4,0.3c-0.1,0.2-0.3,0.4-0.4,0.6c0,0.1-0.1,0.1-0.1,0.2
				c0,0.1,0.1,0.2,0.1,0.4c0.2,0.5,0,1.1-0.2,1.6c-0.2,0.5-0.6,1-0.6,1.5c0,0.1,0,0.3,0.1,0.4c0.1,0.1,0.1,0.1,0.2,0.2
				c0.6,0.3,1.2,0.5,1.8,0.5c0.6,0,1.3,0,1.9,0.1c0.6,0.1,1.1,0.5,1.7,0.6c-0.5,0.2-1,0.4-1.6,0.4c-1.5,0.1-3-0.6-4.5-0.6
				c-0.1,0-0.3,0-0.4,0c-0.4-0.1-0.5-0.6-0.7-0.9c-0.7,0.7-1.7,1-2.6,1.1c-1,0.1-1.9,0-2.9-0.1c-0.6-0.1-1.3-0.1-1.8-0.4
				c1.5-0.4,2.9-0.8,4.4-1c0.2,0,0.5-0.1,0.6-0.3c-0.7-0.4-1.5-0.5-2.3-0.6s-1.6-0.4-2.1-1c1.3-0.1,2.5,0,3.8,0.3
				c0.3,0.1,0.7,0.2,1.1,0.1c0.2-0.1,0.4-0.2,0.6-0.3c0.3-0.1,0.6-0.2,0.8-0.4c0.7-0.4,1-1.2,1.6-1.7
				C467.1,216,467.4,215.9,467.6,216"/>
		</g>
		<g>
			<path class="st31" d="M467,219c0.1-0.1,0.1-0.1,0.2-0.2c-0.2,0.4-0.6,0.9-0.9,1.1c-0.1,0-0.1,0.1-0.2,0.1c-0.1,0-0.1-0.1-0.1-0.1
				c0-0.1,0.4-0.4,0.5-0.4C466.6,219.3,466.8,219.1,467,219z"/>
		</g>
		<g>
			<path class="st31" d="M463.7,219.5c0.2-0.1,0.4-0.2,0.5-0.3c0.1-0.1,0.4-0.2,0.5-0.4c-0.1,0-0.2,0.1-0.3,0.1
				c-0.2,0.1-0.3,0.2-0.5,0.3c0,0-0.1,0.1-0.1,0.1C463.7,219.4,463.7,219.4,463.7,219.5"/>
		</g>
		<g>
			<path class="st31" d="M462.7,220.7C462.7,220.7,462.8,220.7,462.7,220.7c0.1,0,0.2-0.1,0.2-0.1c0.1,0,0.2-0.1,0.3-0.1
				c0.1,0,0.2-0.1,0.3-0.1c0.2-0.1,0.4-0.2,0.7-0.3c0.1-0.1,0.3-0.1,0.4-0.1c0,0.1-0.1,0.2-0.2,0.2
				C464,220.6,463.4,220.7,462.7,220.7"/>
		</g>
		<g>
			<path class="st31" d="M463.1,218.7c-0.3-0.1-0.6-0.1-0.9-0.1c-0.1,0-0.2,0-0.2,0c-0.1,0-0.2,0-0.2,0c-0.1,0-0.3-0.1-0.4-0.1
				c-0.1,0-0.2,0-0.2-0.1c0,0,0,0,0-0.1c0,0,0,0,0,0c0.2,0,0.5,0.1,0.7,0.1C462.2,218.6,462.7,218.5,463.1,218.7"/>
		</g>
		<g>
			<path class="st31" d="M467.7,217.7c-0.1,0.1-0.2,0.3-0.3,0.4c0,0-0.3,0.3-0.3,0.2c0-0.1,0.1-0.1,0.2-0.2c0.1-0.1,0.1-0.2,0.2-0.3
				c0.1-0.2,0.1-0.4,0.1-0.6c0-0.2,0-0.4,0.1-0.6c0,0,0.1-0.1,0.1-0.1c0.1,0,0.1,0.1,0.1,0.1c0,0.2,0,0.3,0,0.5c0,0.1,0,0.2,0,0.3
				C467.8,217.6,467.7,217.6,467.7,217.7z"/>
		</g>
	</g>
	<g>
		<g>
			<path class="st32" d="M331.7,163.4c-0.1,0-0.4,0.2-0.5,0.2c-0.1,0-0.3-0.2-0.4-0.2c-0.3-0.1-0.6-0.1-0.9-0.1
				c-0.5,0.1-0.9,0.3-1.3,0.5c-0.4,0.2-0.9,0.4-1.3,0.6c-0.4,0.2-0.8,0.4-1.3,0.5c-0.3,0.1-0.6,0.1-0.9,0.2
				c-0.5,0.1-1.8,0.7-1.3,1.4c0.1,0.2,0.3,0.3,0.5,0.4c-0.1,0.1-0.2,0.3,0,0.4c0.1,0.1,0.3,0.2,0.4,0.2c0.2,0,0.4,0.1,0.5,0.1
				c-0.2,0-0.4,0-0.7,0c-0.1,0-0.1,0-0.2,0c-0.1,0.1-0.1,0.2-0.2,0.4c-0.1,0.2-0.2,0.3-0.1,0.4c0,0.1,0.1,0.1,0.2,0.2
				c0.8,0.3,1.7,0.3,2.5,0.3c0.7,0,1.5,0,2.2,0c0.4,0,0.9,0,1.3-0.2c0.3-0.1,0.6-0.4,0.8-0.6c0.8-0.8,1.3-1.9,1.5-3
				c0-0.1,0-0.1,0-0.2c0-0.2-0.3-0.3-0.5-0.2c-0.2,0.1-0.3,0.2-0.4,0.4c0.3-0.1,0.4-0.4,0.4-0.6s-0.2-0.5-0.3-0.7
				C331.8,163.4,331.8,163.4,331.7,163.4C331.7,163.3,331.7,163.4,331.7,163.4z"/>
		</g>
		<g>
			<path class="st33" d="M331.9,163.3c0-0.4-0.6-0.6-0.9-0.8c-0.4-0.2-0.9-0.3-1.4-0.3c-0.7,0-1.4,0.1-2,0.2c-0.2,0-0.4,0.1-0.7,0.2
				c-0.3,0.1-0.5,0.2-0.7,0.4c-0.7,0.5-1.5,0.9-2,1.6c-0.2,0.3-0.4,0.6-0.4,0.9c0.1,0.6,1.4,0.6,1.9,0.6c0.7,0,1.5,0,2.2-0.2
				c1.4-0.3,2.7-1,3.7-2.1C331.7,163.7,331.9,163.5,331.9,163.3z"/>
		</g>
		<g>
			<path class="st34" d="M330.6,163.3c-0.3,0-0.5,0.1-0.8,0.1c-0.2,0-0.4,0.1-0.6,0.2c-0.2,0.1-0.2,0.4-0.1,0.5
				c0.1,0.1,0.2,0.1,0.3,0.1c0.2,0,0.5,0,0.7,0c-0.1,0-0.2-0.1-0.3-0.2c-0.1-0.1-0.1-0.2-0.1-0.3c0.1-0.2,0.3-0.3,0.4-0.4
				C330.4,163.5,330.4,163.4,330.6,163.3"/>
			<g>
				<path class="st34" d="M330.6,163.3c-0.4,0.1-0.8,0.1-1.1,0.2c-0.2,0.1-0.4,0.2-0.4,0.4c-0.1,0.6,0.9,0.5,1.2,0.5
					c0.1,0,0.1-0.1,0-0.1c-0.3-0.2-0.4-0.4-0.2-0.6c0,0,0.1-0.1,0.2-0.1c0.1-0.1,0.2-0.1,0.3-0.2
					C330.6,163.4,330.6,163.3,330.6,163.3c-0.4,0.2-0.7,0.3-0.8,0.7c0,0.3,0.2,0.4,0.4,0.5c0,0,0-0.1,0-0.1c-0.2,0-0.4,0-0.6,0
					c-0.1,0-0.3,0-0.4-0.1c-0.2-0.2-0.1-0.4,0.1-0.6c0.2-0.1,0.4-0.1,0.6-0.2c0.2,0,0.4-0.1,0.6-0.1
					C330.7,163.4,330.7,163.3,330.6,163.3L330.6,163.3z"/>
			</g>
		</g>
		<g>
			<g>
				<path class="st34" d="M326.5,165.6c-0.5,0-1,0-1.5,0c-0.1,0-0.2,0-0.2-0.1c-0.4-0.2-0.2-0.6,0-0.8c0.2-0.2,0.4-0.5,0.8-0.6
					c0.1,0,0-0.1,0-0.1c-0.4,0.1-1.4,0.9-1,1.4c0.1,0.2,0.4,0.2,0.6,0.2c0.5,0.1,0.9,0,1.4,0C326.5,165.7,326.5,165.6,326.5,165.6
					L326.5,165.6z"/>
			</g>
		</g>
		<g>
			<g>
				<path class="st34" d="M326,163.7c1.4-1.1,3.2-1.3,4.7-0.6c0.1,0,0.1-0.1,0.1-0.1C329.1,162.3,327.3,162.5,326,163.7
					C325.8,163.7,325.9,163.7,326,163.7L326,163.7z"/>
			</g>
		</g>
	</g>
	<g>
		<g>
			<path class="st19" d="M353.9,238.9c-0.2-1,0.9-2,1.8-1.8c0.1,0,0.2,0.1,0.3,0c0.1,0,0.1-0.1,0.2-0.2c0.2-0.4,0.3-0.8,0.5-1.1
				s0.5-0.7,0.9-0.7c0.2,0,0.5,0.1,0.7,0.2c1.2,0.5,2.5,1.1,3.3,2.2c0.3-0.2,0.7-0.1,0.9,0.2c0.2,0.3,0.3,0.7,0.3,1
				c0,0.6-0.1,1.2-0.3,1.8c-0.1,0.4-0.4,0.9-0.9,1c-0.5,0.1-0.9-0.5-1.2-0.9c-0.1-0.1-0.1-0.2-0.3-0.2c-0.2,0-0.4,0.2-0.5,0.4
				c-0.4,0.5-1.1,0.5-1.7,0.4c-0.6-0.1-1.2-0.1-1.8-0.1c-0.3,0-0.6,0-0.8-0.1c-0.8-0.3-1.2-1.1-1.3-2"/>
		</g>
		<g>
			<g>
				<path class="st33" d="M356.5,237.8c0.7-0.2,0.7,0.5,1.1,0.7c0.2,0.1,0.3,0,0.5,0.1c0.1,0.1,0.1,0.2,0.2,0.2
					c0.2,0,0.3-0.2,0.1-0.3c0,0-0.1-0.3-0.2-0.3c-0.1-0.1-0.2,0-0.3,0c-0.2,0-0.3-0.2-0.4-0.3c-0.3-0.3-0.6-0.5-1-0.4
					C356.2,237.6,356.3,237.8,356.5,237.8L356.5,237.8z"/>
			</g>
		</g>
		<g>
			<g>
				<path class="st33" d="M359,237.6c0.4-0.1,0.9-0.1,1.2,0.3c0.2,0.3,0,0.6,0.1,1c0.1,0.4,0.6,0.5,1,0.7c0.2,0.1,0.3-0.2,0.1-0.2
					c-0.2-0.1-0.4-0.1-0.6-0.3c-0.2,0-0.2-0.1-0.2-0.3c0-0.1,0-0.2,0-0.3c0-0.3,0-0.5-0.1-0.7c-0.3-0.5-1-0.4-1.5-0.3
					C358.8,237.3,358.9,237.6,359,237.6L359,237.6z"/>
			</g>
		</g>
		<g>
			<g>
				<path class="st33" d="M361.6,238.6c0.1-0.1,0.2-0.2,0.3-0.1c0.2,0,0.2-0.2,0.1-0.3c-0.2,0-0.5,0.1-0.6,0.3
					C361.2,238.6,361.5,238.7,361.6,238.6L361.6,238.6z"/>
			</g>
		</g>
		<g>
			<g>
				<path class="st33" d="M356.1,239.8c0.3-0.1,0.8-0.2,1,0c0.1,0.1,0.1,0.1,0.2,0.2c0,0,0.1,0,0.1,0.1c0,0-0.1,0.1-0.1,0.1
					c-0.1,0-0.3-0.1-0.3-0.1c-0.1-0.1-0.3,0.1-0.1,0.2c0.2,0.1,0.5,0.3,0.7,0.1c0.2-0.1,0.2-0.3,0-0.5c0,0-0.1-0.1-0.1-0.1
					c0-0.1,0-0.1-0.1-0.2c-0.1-0.1-0.1-0.1-0.2-0.1c-0.3-0.1-0.7,0-1,0.1C355.9,239.6,356,239.9,356.1,239.8L356.1,239.8z"/>
			</g>
		</g>
	</g>
	<g>
		<g>
			<path class="st19" d="M352.4,226.7c-0.1-0.7,0.6-1.4,1.3-1.3c0.1,0,0.2,0,0.2,0c0.1,0,0.1-0.1,0.1-0.2c0.1-0.3,0.2-0.5,0.3-0.8
				c0.1-0.3,0.4-0.5,0.6-0.5c0.2,0,0.3,0.1,0.5,0.1c0.9,0.4,1.7,0.8,2.3,1.6c0.2-0.2,0.5-0.1,0.6,0.1c0.1,0.2,0.2,0.5,0.2,0.7
				c0,0.4-0.1,0.8-0.2,1.2c-0.1,0.3-0.3,0.6-0.6,0.7c-0.4,0-0.6-0.3-0.8-0.6c-0.1-0.1-0.1-0.1-0.2-0.1c-0.2,0-0.3,0.1-0.4,0.3
				c-0.3,0.3-0.8,0.3-1.2,0.3c-0.4,0-0.8-0.1-1.3-0.1c-0.2,0-0.4,0-0.6-0.1C352.8,227.8,352.5,227.2,352.4,226.7"/>
		</g>
		<g>
			<g>
				<path class="st33" d="M354.2,225.9c0.5-0.2,0.5,0.3,0.8,0.5c0.1,0.1,0.2,0,0.3,0.1c0.1,0.1,0,0.1,0.2,0.2c0.1,0,0.2-0.2,0.1-0.2
					c0,0-0.1-0.2-0.2-0.2c-0.1,0-0.1,0-0.2,0c-0.2,0-0.2-0.1-0.3-0.2c-0.2-0.2-0.4-0.4-0.7-0.3C354,225.8,354.1,226,354.2,225.9
					L354.2,225.9z"/>
			</g>
		</g>
		<g>
			<g>
				<path class="st33" d="M355.9,225.8c0.3-0.1,0.7-0.1,0.8,0.2c0.1,0.2,0,0.4,0.1,0.7c0,0.3,0.4,0.4,0.7,0.5
					c0.1,0.1,0.2-0.1,0.1-0.2c-0.1-0.1-0.3-0.1-0.4-0.2c-0.1,0-0.2-0.1-0.2-0.2c0-0.1,0-0.1,0-0.2c0-0.2,0-0.4-0.1-0.5
					c-0.2-0.3-0.7-0.3-1-0.2C355.8,225.6,355.8,225.8,355.9,225.8L355.9,225.8z"/>
			</g>
		</g>
		<g>
			<g>
				<path class="st33" d="M357.7,226.5c0-0.1,0.1-0.1,0.2-0.1c0.1,0,0.2-0.2,0.1-0.2c-0.2,0-0.3,0-0.4,0.2
					C357.5,226.5,357.7,226.6,357.7,226.5L357.7,226.5z"/>
			</g>
		</g>
		<g>
			<g>
				<path class="st33" d="M353.9,227.3c0.2-0.1,0.6-0.2,0.7,0c0,0.1,0.1,0.1,0.1,0.1c0,0,0,0,0.1,0c0,0,0,0.1-0.1,0.1
					c-0.1,0-0.2-0.1-0.2-0.1c-0.1-0.1-0.2,0.1-0.1,0.2c0.1,0.1,0.3,0.2,0.5,0.1c0.1-0.1,0.1-0.2,0-0.3c0,0-0.1-0.1-0.1-0.1
					s0-0.1,0-0.1c0-0.1-0.1-0.1-0.2-0.1c-0.2,0-0.5,0-0.7,0.1C353.8,227.2,353.8,227.4,353.9,227.3L353.9,227.3z"/>
			</g>
		</g>
	</g>
	<g>
		<g>
			<path class="st19" d="M321.3,156.1c-0.1-0.6,0.5-1.1,1-1c0.1,0,0.1,0,0.2,0c0.1,0,0.1-0.1,0.1-0.1c0.1-0.2,0.2-0.4,0.3-0.6
				c0.1-0.2,0.3-0.4,0.5-0.4c0.1,0,0.3,0.1,0.4,0.1c0.7,0.3,1.4,0.6,1.9,1.3c0.2-0.1,0.4,0,0.5,0.1c0.1,0.2,0.1,0.4,0.1,0.6
				c0,0.3-0.1,0.7-0.2,1c-0.1,0.2-0.2,0.5-0.5,0.5c-0.3,0-0.5-0.3-0.7-0.5c0,0-0.1-0.1-0.1-0.1c-0.1,0-0.2,0.1-0.3,0.2
				c-0.2,0.3-0.6,0.3-1,0.2c-0.3,0-0.7-0.1-1-0.1c-0.2,0-0.3,0-0.5-0.1C321.7,157,321.4,156.5,321.3,156.1"/>
		</g>
		<g>
			<g>
				<path class="st33" d="M322.8,155.5c0.4-0.1,0.4,0.3,0.6,0.4c0.1,0,0.2,0,0.3,0.1c0.1,0.1,0,0.1,0.1,0.1c0.1,0,0.1-0.1,0-0.1
					c0,0-0.1-0.1-0.1-0.2c-0.1,0-0.1,0-0.2,0c-0.1,0-0.2-0.1-0.2-0.2c-0.2-0.2-0.3-0.3-0.6-0.2C322.7,155.4,322.7,155.5,322.8,155.5
					L322.8,155.5z"/>
			</g>
		</g>
		<g>
			<g>
				<path class="st33" d="M324.2,155.4c0.2,0,0.5-0.1,0.7,0.2c0.1,0.2,0,0.4,0,0.5c0,0.2,0.4,0.3,0.5,0.4c0.1,0,0.2-0.1,0.1-0.1
					c-0.1,0-0.2-0.1-0.3-0.1c-0.1,0-0.1-0.1-0.1-0.2c0-0.1,0-0.1,0-0.2c0-0.1,0-0.3-0.1-0.4c-0.2-0.3-0.6-0.2-0.8-0.2
					C324.1,155.2,324.1,155.4,324.2,155.4L324.2,155.4z"/>
			</g>
		</g>
		<g>
			<g>
				<path class="st33" d="M325.7,155.9c0-0.1,0.1-0.1,0.2-0.1c0.1,0,0.1-0.1,0-0.1c-0.1,0-0.3,0-0.3,0.2
					C325.5,155.9,325.6,156,325.7,155.9L325.7,155.9z"/>
			</g>
		</g>
		<g>
			<g>
				<path class="st33" d="M322.6,156.6c0.1,0,0.4-0.1,0.5,0c0,0,0.1,0.1,0.1,0.1c0,0,0,0,0,0c0,0,0,0.1-0.1,0.1c0,0-0.1-0.1-0.2-0.1
					c-0.1-0.1-0.2,0.1-0.1,0.1c0.1,0.1,0.3,0.2,0.4,0.1c0.1-0.1,0.1-0.2,0-0.3c0,0-0.1,0-0.1-0.1c0,0,0-0.1,0-0.1
					c0-0.1-0.1-0.1-0.1-0.1c-0.2,0-0.4,0-0.6,0.1C322.5,156.5,322.5,156.7,322.6,156.6L322.6,156.6z"/>
			</g>
		</g>
	</g>
	<g>
	</g>
	<g>
	</g>
	<g>
	</g>
	<g>
	</g>
	<g>
	</g>
	<g>
	</g>
</g>
</svg>
