<svg id="BG" xmlns="http://www.w3.org/2000/svg" xmlns:xlink="http://www.w3.org/1999/xlink" viewBox="0 0 73.02 73.02"><defs><style>.cls-1{fill:url(#linear-gradient);}.cls-2{fill:url(#linear-gradient-2);}.cls-3{fill:url(#linear-gradient-3);}.cls-4{fill:#faed24;}</style><linearGradient id="linear-gradient" x1="1442" y1="400.48" x2="42.99" y2="400.48" gradientUnits="userSpaceOnUse"><stop offset="0" stop-color="#7fd0da" stop-opacity="0.6"/><stop offset="0.18" stop-color="#8cc9d3" stop-opacity="0.55"/><stop offset="0.5" stop-color="#b0b6c0" stop-opacity="0.43"/><stop offset="0.93" stop-color="#e998a2" stop-opacity="0.24"/><stop offset="1" stop-color="#f3929c" stop-opacity="0.2"/></linearGradient><linearGradient id="linear-gradient-2" x1="1392.19" y1="349.83" x2="-6.82" y2="349.83" xlink:href="#linear-gradient"/><linearGradient id="linear-gradient-3" x1="1349.03" y1="309.98" x2="-49.98" y2="309.98" xlink:href="#linear-gradient"/></defs><title>EARTHDAY</title><path class="cls-1" d="M118.52,982.07S-137,704.86,291.91,524.79,885.08,31.54,1022-125s331.39-161.78,331.39-161.78L1442,1087.77Z"/><path class="cls-2" d="M68.71,931.42S-186.81,654.21,242.1,474.14,835.27-19.11,972.16-175.69s331.39-161.78,331.39-161.78l88.64,1374.59Z"/><path class="cls-3" d="M25.55,891.57S-230,614.36,198.93,434.29,792.1-59,929-215.54s331.39-161.78,331.39-161.78L1349,997.28Z"/><circle class="cls-4" cx="36.51" cy="36.51" r="36.51"/></svg>