<svg id="earth" xmlns="http://www.w3.org/2000/svg" viewBox="0 0 146.88 105.5"><defs><style>.cls-1{fill:#c03942;}.cls-2{fill:#989898;}.cls-3{fill:#676767;}</style></defs><title>EARTHDAY</title><path class="cls-1" d="M131.08,18.63c-2,.76-5.79,3.53-8.06,3.27-1.76-.25-4.53-3-6.55-3.78-4.53-1.76-9.82-2-14.86-1.51C94.06,17.63,87,20.9,80,24.17S65.61,30.72,58.56,34c-6.8,3-13.34,6-20.65,7.81-4.78,1-9.57,1.51-14.35,2.52C15.76,46.33-6.15,55.39,1.66,67c2,3,5.29,4.53,8.56,5.79C8,74,7.7,77.55,9.46,79.57s4.28,2.77,7.05,3.53a49.61,49.61,0,0,0,8.56,1H14.24a6.39,6.39,0,0,0-3,.5c-2,1.26-1.76,4-2.52,6.29-1,2.52-3.27,4.78-2.27,7.05,0.5,1.26,2.27,2,3.53,2.52,13.34,4.28,27.45,4.78,41.29,5q18.13,0,36.26-.76c7.3-.25,14.86-0.76,21.65-4,5-2.27,9.06-5.79,12.84-9.82A93.45,93.45,0,0,0,146.69,42a6.14,6.14,0,0,0,0-3c-0.76-3-4.53-4.28-7.55-3.27s-5,3.53-7.05,6c4.28-1.26,6.8-5.79,6.8-10.32s-2.52-8.56-5.54-11.83a2.64,2.64,0,0,0-1-.76C132.08,18.13,131.58,18.38,131.08,18.63Z"/><path class="cls-2" d="M134.35,17.12C134.1,10.58,124,6.8,119.24,4.28,112.44,0.5,104.13,0,96.58,0a205.8,205.8,0,0,0-33,2.77A52.1,52.1,0,0,0,52.77,5.29a56.17,56.17,0,0,0-12.09,6.55C28.85,19.39,16.76,27.19,7.7,38c-3.53,4.28-6.8,9.32-6,14.86,1,10.32,23.16,10.32,31.22,10.58a122.28,122.28,0,0,0,35.75-3.27,124.14,124.14,0,0,0,61.19-34C132.08,23.67,134.6,20.65,134.35,17.12Z"/><path class="cls-3" d="M113.7,18.13c-4.28.76-8.81,1.51-13.09,2.27-3.27.5-6.55,1.26-9.06,3.53s-3.53,6.29-1,8.81c1.51,1.51,3.53,1.76,5.54,1.76,4,0.25,7.81.76,11.83,0.25a6.57,6.57,0,0,1-5-2.52,6.13,6.13,0,0,1-1-5.54c1-3,4.28-4.78,7.05-6.29,1-.5,2-1,3.27-1.51"/><path class="cls-3" d="M113.45,17.12c-5.79,1-12.34,1.51-17.88,3.53-3.53,1.26-6.8,3.53-7.3,7.3-1.51,9.57,14.1,8.06,19.64,7.81a1,1,0,0,0,0-2c-5.54-3-6.55-6-3.27-9.32a11.18,11.18,0,0,1,2.77-2c1.76-1,3.53-1.76,5.54-2.77a0.91,0.91,0,1,0-1-1.51c-4.28,2-10.58,4.28-11.08,9.82-0.5,4.53,3,7.3,7.05,7.81v-2a67.23,67.23,0,0,1-10.07,0c-1.76-.25-4.28,0-5.79-1.26-3.78-2.52-1-7.05,1.76-9.06,2.77-1.76,6.55-2,9.57-2.52,3.53-.5,7.05-1.26,10.58-1.76a1,1,0,0,0-.5-2h0Z"/><path class="cls-3" d="M46.22,54.64c-8.06-.76-16.11.76-24.17-0.5-1.26-.25-2.77-0.25-4-1-6.8-3.27-3.53-9.57-.5-12.84,3.53-4,7.05-7.55,12.34-9.06a0.92,0.92,0,1,0-.5-1.76c-6.8,1.76-23.42,14.6-16.62,22.91C15,55.14,20,55.9,23.31,56.15c7.55,1,15.36-.25,22.91.25,1,0.25,1-1.76,0-1.76h0Z"/><path class="cls-3" d="M37.91,23.92a76.41,76.41,0,0,1,77.55-10.07c1,0.5,2-1.26,1-1.51C89.53,1,59.57,4.78,36.65,22.66c-1,.76.25,2,1.26,1.26h0Z"/></svg>