<svg id="earth" xmlns="http://www.w3.org/2000/svg" viewBox="0 0 194.97 78.57"><defs><style>.cls-1{fill:#cdcccc;}.cls-2{fill:#989898;}</style></defs><title>EARTHDAY</title><path class="cls-1" d="M180.79,76.46C141,84.76,101,66.38,60.93,60.09c-14.35-2.27-30.72-4-38.78-16.11-3.27-5-4.78-11.08-7.81-16.11C11.33,22.57,5.79,18,0,19.55c20.9-6,41.55-12.34,62.44-18.38,2.52-.76,5-1.51,7.55-1,2,0.25,4,1.51,5.79,2.52C83.59,7.46,90.9,13,99,17c29.21,14.6,64.21,7.05,95.93-1.26,1.26,10.83-11.83,18.38-14.35,29-2.27,10.58,6,21.65,2.52,32"/><path class="cls-2" d="M62.95,29.12a35.67,35.67,0,0,1,21.15-6,1.89,1.89,0,1,0,0-3.78,44.13,44.13,0,0,0-23.16,6.55,1.92,1.92,0,0,0,2,3.27h0Z"/><path class="cls-2" d="M107.77,47c2.77-3.27,13.09,4.78,16.87,4.53,5.29-.25,6.8-4,13.6-1.76,4.28,1.51,4.53,4,9.82,3,4.53-.76,9.82-4,13.85-6,2.27-1,.25-4.28-2-3.27C154.1,46.24,147.8,50,141,47c-1.51-.76-2.77-2.27-4.53-2.77-3-1-4.28.25-7.3,1-7.3,1.51-18.13-8.31-24.17-1-1.51,2,1.26,4.53,2.77,2.77h0Z"/><path class="cls-2" d="M62.7,46.74a50.16,50.16,0,0,0,10.58-1c2.27-.5,1.26-4-1-3.53A58.92,58.92,0,0,1,62.7,43c-2.27,0-2.27,3.78,0,3.78h0Z"/><path class="cls-2" d="M29.21,33.15a33.75,33.75,0,0,0,14.6,5c2.52,0.25,2.27-3.53,0-3.78a28.15,28.15,0,0,1-12.59-4.53c-2-1.26-4,1.76-2,3.27h0Z"/></svg>