<svg id="BG" xmlns="http://www.w3.org/2000/svg" xmlns:xlink="http://www.w3.org/1999/xlink" viewBox="0 0 120.64 35.79"><defs><style>.cls-1{fill:url(#linear-gradient);}.cls-2{fill:url(#linear-gradient-2);}.cls-3{fill:url(#linear-gradient-3);}.cls-4{fill:url(#linear-gradient-4);}.cls-5{fill:url(#linear-gradient-5);}.cls-6{fill:url(#linear-gradient-6);}.cls-7{fill:url(#linear-gradient-7);}.cls-8{fill:url(#linear-gradient-8);}.cls-9{fill:url(#linear-gradient-9);}.cls-10{fill:url(#linear-gradient-10);}.cls-11{fill:#1a8f45;}</style><linearGradient id="linear-gradient" x1="1354.64" y1="534.23" x2="-44.37" y2="534.23" gradientUnits="userSpaceOnUse"><stop offset="0" stop-color="#7fd0da" stop-opacity="0.6"/><stop offset="0.18" stop-color="#8cc9d3" stop-opacity="0.55"/><stop offset="0.5" stop-color="#b0b6c0" stop-opacity="0.43"/><stop offset="0.93" stop-color="#e998a2" stop-opacity="0.24"/><stop offset="1" stop-color="#f3929c" stop-opacity="0.2"/></linearGradient><linearGradient id="linear-gradient-2" x1="1328.26" y1="481.38" x2="-70.75" y2="481.38" xlink:href="#linear-gradient"/><linearGradient id="linear-gradient-3" x1="1216.12" y1="421.75" x2="-182.89" y2="421.75" xlink:href="#linear-gradient"/><linearGradient id="linear-gradient-4" x1="1148.35" y1="377.56" x2="-250.66" y2="377.56" xlink:href="#linear-gradient"/><linearGradient id="linear-gradient-5" x1="1098.54" y1="326.91" x2="-300.47" y2="326.91" xlink:href="#linear-gradient"/><linearGradient id="linear-gradient-6" x1="1055.37" y1="287.07" x2="-343.64" y2="287.07" xlink:href="#linear-gradient"/><linearGradient id="linear-gradient-7" x1="1268" y1="524.51" x2="-46.37" y2="524.51" xlink:href="#linear-gradient"/><linearGradient id="linear-gradient-8" x1="1249.1" y1="562.2" x2="99.61" y2="562.2" xlink:href="#linear-gradient"/><linearGradient id="linear-gradient-9" x1="1506.88" y1="716.04" x2="107.87" y2="716.04" xlink:href="#linear-gradient"/><linearGradient id="linear-gradient-10" x1="1480.5" y1="663.19" x2="81.49" y2="663.19" xlink:href="#linear-gradient"/></defs><title>EARTHDAY</title><path class="cls-1" d="M31.16,1115.82S-224.36,838.61,204.55,658.54,797.72,165.3,934.61,8.71,1266-153.06,1266-153.06l88.64,1374.59Z"/><path class="cls-2" d="M4.78,1063S-250.74,785.76,178.17,605.69,771.34,112.45,908.22-44.14s331.39-161.78,331.39-161.78l88.64,1374.59Z"/><path class="cls-3" d="M-107.36,1003.34S-362.88,726.13,66,546.06,659.2,52.81,796.08-103.77s331.39-161.78,331.39-161.78L1216.12,1109Z"/><path class="cls-4" d="M-175.13,959.15S-430.65,681.94-1.74,501.87,591.43,8.63,728.31-148,1059.7-309.73,1059.7-309.73l88.64,1374.59Z"/><path class="cls-5" d="M-224.94,908.5S-480.46,631.3-51.55,451.22,541.62-42,678.5-198.61,1009.9-360.38,1009.9-360.38l88.64,1374.59Z"/><path class="cls-6" d="M-268.1,868.66S-523.62,591.45-94.72,411.38,498.45-81.87,635.34-238.45,966.73-400.23,966.73-400.23l88.64,1374.59Z"/><path class="cls-7" d="M29.39,1147s-256.3-272,173.92-448.63,595-483.92,732.29-637.54S1268-97.93,1268-97.93V1147H29.39Z"/><path class="cls-8" d="M165.87,1110.8S-58.28,871.1,318,715.39s520.35-426.51,640.43-561.9S1249.1,13.6,1249.1,13.6V1110.8H165.87Z"/><path class="cls-9" d="M183.4,1297.64S-72.12,1020.43,356.79,840.35,950,347.11,1086.85,190.52,1418.24,28.75,1418.24,28.75l88.64,1374.59Z"/><path class="cls-10" d="M157,1244.78S-98.5,967.58,330.41,787.5s593.17-493.24,730.06-649.83S1391.85-24.1,1391.85-24.1l88.64,1374.59Z"/><path class="cls-11" d="M120.63,29A28.94,28.94,0,0,0,101,1.21,28.94,28.94,0,0,0,69,12.69a17.85,17.85,0,0,1-3.46,4.55c-5.86,4.65-14.49-2.41-21.75-.6-4.33,1.08-7.25,5.1-11.2,7.18C27,26.74,20.25,25.45,14,25.72s-13.71,3.68-14,10l104.84,0.1c5.52,0,11.78-.31,15.37-4.51"/></svg>