<svg id="BG" xmlns="http://www.w3.org/2000/svg" xmlns:xlink="http://www.w3.org/1999/xlink" viewBox="0 0 82.26 147.94"><defs><style>.cls-1{fill:url(#linear-gradient);}.cls-2{fill:url(#linear-gradient-2);}.cls-3{fill:url(#linear-gradient-3);}.cls-4{fill:url(#linear-gradient-4);}.cls-5{fill:url(#linear-gradient-5);}.cls-6{fill:url(#linear-gradient-6);}.cls-7{fill:#544841;}.cls-8{fill:#129155;}</style><linearGradient id="linear-gradient" x1="1024.57" y1="814.09" x2="-374.44" y2="814.09" gradientUnits="userSpaceOnUse"><stop offset="0" stop-color="#7fd0da" stop-opacity="0.6"/><stop offset="0.18" stop-color="#8cc9d3" stop-opacity="0.55"/><stop offset="0.5" stop-color="#b0b6c0" stop-opacity="0.43"/><stop offset="0.93" stop-color="#e998a2" stop-opacity="0.24"/><stop offset="1" stop-color="#f3929c" stop-opacity="0.2"/></linearGradient><linearGradient id="linear-gradient-2" x1="998.19" y1="761.23" x2="-400.82" y2="761.23" xlink:href="#linear-gradient"/><linearGradient id="linear-gradient-3" x1="886.05" y1="701.6" x2="-512.96" y2="701.6" xlink:href="#linear-gradient"/><linearGradient id="linear-gradient-4" x1="818.28" y1="657.42" x2="-580.73" y2="657.42" xlink:href="#linear-gradient"/><linearGradient id="linear-gradient-5" x1="768.47" y1="606.77" x2="-630.54" y2="606.77" xlink:href="#linear-gradient"/><linearGradient id="linear-gradient-6" x1="725.3" y1="566.92" x2="-673.71" y2="566.92" xlink:href="#linear-gradient"/></defs><title>EARTHDAY</title><path class="cls-1" d="M-298.91,1395.68S-554.43,1118.47-125.52,938.4,467.65,445.15,604.54,288.57,935.93,126.79,935.93,126.79l88.64,1374.59Z"/><path class="cls-2" d="M-325.29,1342.83s-255.52-277.21,173.39-457.28S441.26,392.3,578.15,235.71,909.54,73.94,909.54,73.94l88.64,1374.59Z"/><path class="cls-3" d="M-437.43,1283.19S-693,1006-264,825.91,329.13,332.67,466,176.08,797.4,14.31,797.4,14.31L886,1388.9Z"/><path class="cls-4" d="M-505.2,1239S-760.72,961.8-331.81,781.73,261.36,288.48,398.24,131.9,729.63-29.88,729.63-29.88l88.64,1374.59Z"/><path class="cls-5" d="M-555,1188.36S-810.53,911.15-381.62,731.08,211.55,237.83,348.43,81.25,679.83-80.53,679.83-80.53l88.64,1374.59Z"/><path class="cls-6" d="M-598.18,1148.51S-853.7,871.3-424.79,691.23,168.38,198,305.27,41.4,636.66-120.37,636.66-120.37L725.3,1254.22Z"/><path class="cls-7" d="M33.1,101.21c-0.63,4.91-1.94,10.11-1.56,15a78.47,78.47,0,0,1-.42,16.34c-0.39,3-1.47,5.1-4.21,6.58a6.2,6.2,0,0,0-1.42.93,1.73,1.73,0,0,0-.56,1.54,2.54,2.54,0,0,0,1.54,1.48,6.74,6.74,0,0,0,1.88.73,6,6,0,0,1,2.43.45,4.56,4.56,0,0,1,1.06,1.31,5.36,5.36,0,0,0,4.42,2.21c0.83,0,1.47-.57,2.22-0.59,0.9,0,1.65.82,2.53,0.73s1.52-1,2.33-1.29c1.88-.61,6.79,2.52,6.68-1.47a5.07,5.07,0,0,0-1.27-2.82,16.53,16.53,0,0,0,3.09.43,1.9,1.9,0,0,0,1.15-.2,1.48,1.48,0,0,0-.07-2.18,8.44,8.44,0,0,0-2.15-1.23c-3.29-1.82-2.63-5.38-2.82-8.52a59.08,59.08,0,0,1,.26-11.94c0.54-3.82,1.7-7.59,1.48-11.43a4.57,4.57,0,0,0-.6-2.29,4.83,4.83,0,0,0-1.78-1.44,27.59,27.59,0,0,0-15.48-3.36"/><path class="cls-8" d="M19.1,43.08a7.15,7.15,0,0,0,4.78,2.44A77.65,77.65,0,0,0,11.19,64.35a5.68,5.68,0,0,0,4,2L6.93,80c-1,1.72-2.1,3.61-1.83,5.59s2.65,3.7,4.31,2.57l-8.3,15.3A7.11,7.11,0,0,0,0,106.67a5.69,5.69,0,0,0,2.28,4.12,14.32,14.32,0,0,0,13.3,2.89c-2,2.49-.37,6.66,2.62,7.8s6.5-.28,8.59-2.7A5.85,5.85,0,1,0,38.42,120q0-.27,0-0.54a39.68,39.68,0,0,0,7.05,8,3.07,3.07,0,0,0,2.62,1,3.08,3.08,0,0,0,1.71-1.89l4-8.15c3.49,2.48,7.35,5.07,11.62,4.8s8.3-5.14,6.09-8.8c3.14-.84,6.36,3.58,9.17,1.94,1.69-1,1.66-3.42,1.29-5.34a51.17,51.17,0,0,0-7.52-18.64c1.12,1.2,3.32.43,4.05-1s0.43-3.22,0-4.81a47.3,47.3,0,0,0-7.11-15.46c1.2,1.57,4,.7,4.8-1.1s0.22-3.92-.57-5.73a27.69,27.69,0,0,0-7-9.58c3.19,0,5.25-3.79,4.81-6.95S71,42,69.1,39.49A110,110,0,0,1,56.89,19L59.53,20c1.35-4.31-2.22-8.47-5.49-11.59-1.83-1.7-7-9.28-10-8.27-1.17.38-2.62,5.49-3.26,6.68a50.2,50.2,0,0,1-4.89,7.42c-1.62,2-3.43,4-4.32,6.43a4.16,4.16,0,0,0,3.06,1C33.78,22.83,19.26,43.26,19.1,43.08Z"/></svg>