<svg id="earth" xmlns="http://www.w3.org/2000/svg" viewBox="0 0 551.42 254.12"><defs><style>.cls-1{fill:#faed24;}.cls-2{fill:#f5cc24;}</style></defs><title>EARTHDAY</title><path class="cls-1" d="M342.18,37A173.55,173.55,0,0,1,366.36,0,35.43,35.43,0,0,1,379.7,10.32c-4.78,7.3-9.57,14.86-14.35,22.16-1.76,2.77-3.53,5.54-3.78,8.56-0.5,4.78,2.52,9.06,4.53,13.6,8.81,18.63,1.26,40.79-8.06,58.92-9.32,18.38-21.15,36.76-20.9,57.41,0,5.29,1,10.83,4.53,14.86a24.33,24.33,0,0,0,8.31,6A168.42,168.42,0,0,0,418.48,212c23.42,1.51,47.34-1.76,70,3.53,21.65,5,41.29,17.37,62.95,22.41A162.92,162.92,0,0,1,491,253.81c-57.41,3.53-113.05-23.92-170.46-22.41-5,.25-10.07.5-14.86-1-13.85-4.53-17.88-22.16-28.2-32.73-26.94,24.68-63.2,37-99.46,41.55-36.26,4.28-72.77,1.26-109.28-2-23.67-2-48.34-4.53-68.74-16.87a1194.67,1194.67,0,0,1,167.44-38.52c8.56-1.26,18.13-3,23.67-9.82-25.43-14.86-56.15-17.37-85.36-22.16s-60.18-13.6-78.56-36.51A373.11,373.11,0,0,1,168.7,125.64c13.09,3.78,26.69,8.31,39.78,4.78,8.06-2,14.86-6.8,22.16-10.58,10.07-5,20.9-8.31,30.72-14.1C286,90.9,298.62,61.94,320.28,42.8c6.29-5.54,15.61-10.07,22.41-5"/><path class="cls-2" d="M319.52,148.81c2.27-2.52,4.28-5,7.3-6.55-6,15.61-22.41,33-35.5,43.06-2,1.51-4.53,3-6.8,2.27a4.19,4.19,0,0,1-3-4.78c0.5-4.28,14.1-13.85,17.63-16.87C305.93,160.39,313.48,155.61,319.52,148.81Z"/><path class="cls-2" d="M196.65,167.69A108.41,108.41,0,0,0,217,157.87c5.54-3.53,13.6-8.56,17.12-14.35-3.78-.76-9.06,2.77-12.34,4.53-6.55,3.53-12.84,7.05-19.14,10.58-1.76,1-3.78,2-5,3.78a3.91,3.91,0,0,0-1,5.29"/><path class="cls-2" d="M161.15,213.27c0-.76,1-1,1.76-1a22.55,22.55,0,0,0,5.79-2c4-1.76,8.31-2.27,12.34-3.27s8.06-3,12.09-4.53c8.56-3.27,16.87-6.55,25.43-9.82,5-2,10.58-4,15.86-3.53-0.76,3.78-4,6-7.3,8.06a108.71,108.71,0,0,1-65.47,16.11"/><path class="cls-2" d="M174.49,140.5a232.47,232.47,0,0,0-35-3.78,63.71,63.71,0,0,1-17.88-2.27c-5-1.26-10.32-2.52-15.36-3.78a29.73,29.73,0,0,1-9.32-3.53c-1-.5-1.76-1.76-0.76-2.52a3.19,3.19,0,0,1,1.51-.25c9.06,0.5,17.63,3.78,26.69,5.54,16.87,3.53,35.75,1.51,50.11,10.07"/><path class="cls-2" d="M346.72,101.22a95.49,95.49,0,0,1-12.09,14.6c-0.5.5-11.33,10.07-11.33,7.81,0-3.53,3.53-5.54,5.79-8.06a50.88,50.88,0,0,0,6-10.07c3-6.8,4.28-14.1,4.78-21.65,0.25-7.3,0-15.11,3.78-21.15,1.26-1.76,3-3.53,5.29-3,2,0.76,2.52,3.27,2.77,5.29,0.5,5.79,1,11.58,1,17.63a39.87,39.87,0,0,1-.76,9.57A53.43,53.43,0,0,1,346.72,101.22Z"/></svg>