<svg id="BG" xmlns="http://www.w3.org/2000/svg" xmlns:xlink="http://www.w3.org/1999/xlink" viewBox="0 0 163.49 85.26"><defs><style>.cls-1{fill:url(#linear-gradient);}.cls-2{fill:url(#linear-gradient-2);}.cls-3{fill:url(#linear-gradient-3);}.cls-4{fill:url(#linear-gradient-4);}.cls-5{fill:url(#linear-gradient-5);}.cls-6{fill:url(#linear-gradient-6);}.cls-7{fill:url(#linear-gradient-7);}.cls-8{fill:url(#linear-gradient-8);}.cls-9{fill:url(#linear-gradient-9);}.cls-10{fill:url(#linear-gradient-10);}.cls-11{fill:url(#linear-gradient-11);}.cls-12{opacity:0.56;}.cls-13{fill:#e6e6e5;}</style><linearGradient id="linear-gradient" x1="1379.81" y1="414.97" x2="-19.2" y2="414.97" gradientUnits="userSpaceOnUse"><stop offset="0" stop-color="#7fd0da" stop-opacity="0.6"/><stop offset="0.18" stop-color="#8cc9d3" stop-opacity="0.55"/><stop offset="0.5" stop-color="#b0b6c0" stop-opacity="0.43"/><stop offset="0.93" stop-color="#e998a2" stop-opacity="0.24"/><stop offset="1" stop-color="#f3929c" stop-opacity="0.2"/></linearGradient><linearGradient id="linear-gradient-2" x1="1353.43" y1="362.11" x2="-45.58" y2="362.11" xlink:href="#linear-gradient"/><linearGradient id="linear-gradient-3" x1="1241.29" y1="302.48" x2="-157.72" y2="302.48" xlink:href="#linear-gradient"/><linearGradient id="linear-gradient-4" x1="1173.52" y1="258.3" x2="-225.49" y2="258.3" xlink:href="#linear-gradient"/><linearGradient id="linear-gradient-5" x1="1123.71" y1="207.65" x2="-275.3" y2="207.65" xlink:href="#linear-gradient"/><linearGradient id="linear-gradient-6" x1="1080.55" y1="167.8" x2="-318.46" y2="167.8" xlink:href="#linear-gradient"/><linearGradient id="linear-gradient-7" x1="1293.18" y1="405.25" x2="-21.2" y2="405.25" xlink:href="#linear-gradient"/><linearGradient id="linear-gradient-8" x1="1274.27" y1="442.93" x2="124.78" y2="442.93" xlink:href="#linear-gradient"/><linearGradient id="linear-gradient-9" x1="1532.05" y1="596.78" x2="133.04" y2="596.78" xlink:href="#linear-gradient"/><linearGradient id="linear-gradient-10" x1="1505.67" y1="543.93" x2="106.66" y2="543.93" xlink:href="#linear-gradient"/><linearGradient id="linear-gradient-11" x1="1445.42" y1="587.06" x2="131.04" y2="587.06" xlink:href="#linear-gradient"/></defs><title>EARTHDAY</title><path class="cls-1" d="M56.34,996.56S-199.18,719.35,229.72,539.28,822.89,46,959.78-110.55s331.39-161.78,331.39-161.78l88.64,1374.59Z"/><path class="cls-2" d="M29.95,943.71S-225.57,666.5,203.34,486.42,796.51-6.82,933.39-163.41s331.39-161.78,331.39-161.78l88.64,1374.59Z"/><path class="cls-3" d="M-82.19,884.07S-337.71,606.86,91.2,426.79,684.37-66.45,821.25-223s331.39-161.78,331.39-161.78l88.64,1374.59Z"/><path class="cls-4" d="M-150,839.89S-405.48,562.68,23.43,382.61,616.6-110.64,753.48-267.22,1084.88-429,1084.88-429l88.64,1374.59Z"/><path class="cls-5" d="M-199.77,789.24S-455.29,512-26.38,332,566.79-161.29,703.68-317.87s331.39-161.78,331.39-161.78l88.64,1374.59Z"/><path class="cls-6" d="M-242.93,749.39S-498.45,472.18-69.54,292.11,523.63-201.13,660.51-357.72,991.9-519.49,991.9-519.49L1080.55,855.1Z"/><path class="cls-7" d="M54.56,1027.69s-256.3-272,173.92-448.63,595-483.92,732.29-637.54S1293.18-217.2,1293.18-217.2V1027.69H54.56Z"/><path class="cls-8" d="M191,991.53s-224.15-239.7,152.1-395.41S863.49,169.62,983.57,34.22s290.71-139.89,290.71-139.89V991.53H191Z"/><path class="cls-9" d="M208.58,1178.37S-46.94,901.16,382,721.09,975.13,227.84,1112,71.26,1443.41-90.52,1443.41-90.52l88.64,1374.59Z"/><path class="cls-10" d="M182.19,1125.52S-73.33,848.31,355.58,668.24,948.75,175,1085.63,18.41,1417-143.37,1417-143.37l88.64,1374.59Z"/><path class="cls-11" d="M206.8,1209.5s-256.3-272,173.92-448.63S975.71,277,1113,123.33,1445.42-35.39,1445.42-35.39V1209.5H206.8Z"/><g class="cls-12"><path class="cls-13" d="M38.1,22.94c-3.78-4.71-2.72-12.2,1.39-16.64S50,0,56,0c6.63,0,14.59,3.58,14.52,10.21a12.54,12.54,0,0,1,24.13,2.25A27.28,27.28,0,0,1,124.36,8a27.17,27.17,0,0,1,14.78,26.12c10.14-5.57,24.8,3.51,24.33,15S147.7,68.62,138,62.25a25.67,25.67,0,0,1-43.49,1,34,34,0,0,1-30.9,22A34.18,34.18,0,0,1,32.2,63.91c-8.35,7.16-22.67,4.38-28.77-4.77S-0.35,36.66,7.61,29,28,19.49,38.37,23"/></g></svg>