<svg id="earth" xmlns="http://www.w3.org/2000/svg" viewBox="0 0 192.13 176.86"><defs><style>.cls-1{fill:#73538e;}.cls-2{fill:#e6e6e5;}.cls-3{fill:#67458d;}.cls-4{fill:#cdcccc;}</style></defs><title>EARTHDAY</title><path class="cls-1" d="M126.07,170.15c-6.56.12-12.56-1.35-18.94-1.86s-10.86,1.32-17.2,3.21c-13.29,3.94-27.31,6.87-41.19,4.51C38.5,174.24,29,169.7,19.61,165.19c-5.29-2.54-10.71-5.21-14.8-9.48-9.12-9.54-3.35-15.5,1.61-24.69a200,200,0,0,0,12.85-30.61c6.92-20.69,11.39-42.13,17.31-63.09,2.65-9.29,5.9-19.46,14.13-24.54,2.59-1.61,5.62-2.67,7.43-5.11,1.13-1.5,1.7-3.45,2.92-4.92,3-3.68,8.86-3.17,13.25-1.37,9.51,3.92,16.55,12.19,22.06,20.88s9.84,18.13,16,26.33a14.93,14.93,0,0,0,5.09,4.73c2.21,1.08,4.74,1.12,7.13,1.65,6.36,1.44,11.32,6.27,15.84,11,10.31,10.6,29.32,24.3,33.4,38.86,0.73,2.65,1.1,5.38,1.83,8,4.9,17.87,27.33,30.62,9.95,43.51C174.39,164.6,140.06,169.89,126.07,170.15Z"/><path class="cls-2" d="M76,79.6c-4.09,2.34-9.54.56-12.68-2.93s-4.42-8.24-5.2-12.88-1.17-9.41-3-13.71c-1.24-3-4-6.14-7.17-5.29-2.57.68-3.73,3.55-5.49,5.55-1.52,1.71-6.66,4.74-9,3.06s0.14-9,.8-11.46C37,32.28,40.08,20.34,48.06,13.59a47.88,47.88,0,0,1,8.06-5.07C58.93,6.95,59,5.21,61.07,2.75c3-3.68,8.86-3.17,13.25-1.37,9.51,3.92,16.55,12.19,22.06,20.88,4,6.28,7.28,12.91,11.2,19.19,1.81,2.88,7.5,12.8-1.63,10.54-2.62-.65-5.19-2.5-7.85-1.82,0.58,3.06,1.17,6.26.37,9.29s-3.34,5.83-6.5,5.8c-3.55-.05-6-3.38-7.87-6.35A2.92,2.92,0,0,0,81,61a9.7,9.7,0,0,0-.1,4.09C81.44,70.46,80.68,76.95,76,79.6Z"/><path class="cls-3" d="M91.4,116.93c-0.94-5.65-1.66-11.77-.07-17.34A24.74,24.74,0,0,1,95,91.69c0.65-.8,7.18-5.58,7.16-5.76-0.44-2.36-3.54-2.94-5.93-2.81-4.28.27-9,1.41-11.29,5.08s-1.11,8.55-.13,12.83a97.34,97.34,0,0,1,2.22,14.65c0.1,1.41-.81,10.79,2.21,9.64a1.75,1.75,0,0,0,.63-0.49C91.87,122.79,91.86,119.65,91.4,116.93Z"/><path class="cls-3" d="M140.21,80.72c-2.93-2.49-4-6.45-6.78-9-3.62-3.42-6.58-2-6,3.05a20,20,0,0,1,.39,5.38c-0.72,4.75-4.81,8.82-5.65,13.76a13.39,13.39,0,0,0,1.63,9,7.67,7.67,0,0,0,3.07,3.1,3.9,3.9,0,0,0,4.19-.35c1.8-1.51,1.46-4.36,2.41-6.52,1.45-3.25,5.68-4.23,9.25-4,3.16,0.21,7,.73,8.82-1.89s-0.24-6.28-2.93-8S142.62,82.76,140.21,80.72Z"/><path class="cls-3" d="M44.82,76.11a31,31,0,0,1-.41,11.43A35.32,35.32,0,0,1,41.1,98.11a15.74,15.74,0,0,1-8,7.41,1.65,1.65,0,0,1-.79.15,1.24,1.24,0,0,1-.66-1.81,6.84,6.84,0,0,1,1.57-1.62C35,100.6,35.5,98,35.6,95.59s0-4.92.9-7.16c0.68-1.65,1.82-3.06,2.63-4.63a20.37,20.37,0,0,0,1.31-3.91c0.56-2.08,1.07-4.16,1.63-6.24A1.27,1.27,0,0,1,43,72.47a1.14,1.14,0,0,1,.95.82,6.55,6.55,0,0,1,.63,3.15"/><path class="cls-4" d="M63,10.15c2.18-.51,4,1.39,5.5,3.1s3.41,3.61,5.54,3a1.36,1.36,0,0,0,1-.74,1.69,1.69,0,0,0-.9-2A11.9,11.9,0,0,1,72,12.42a20.58,20.58,0,0,1-1.67-2.18C69,8.7,66.6,8.69,64.57,8.84c-0.84.06-2,.46-1.81,1.29"/><path class="cls-4" d="M73.51,37.73a12.77,12.77,0,0,1,2.76,5c0.23,0.74.37,1.48,0.61,2.22a8.53,8.53,0,0,0,1.53,2.77,3.27,3.27,0,0,0,1.26-3.37A8.58,8.58,0,0,0,77.87,41a9.28,9.28,0,0,0-4.25-3.55"/></svg>